<svg xmlns="http://www.w3.org/2000/svg" width="1024" height="1024" viewBox="0 0 1024 1024">
  <defs>
    <linearGradient id="sky" x1="0" y1="0" x2="0" y2="1">
      <stop offset="0%" stop-color="#070b19"/>
      <stop offset="55%" stop-color="#1c2f6f"/>
      <stop offset="100%" stop-color="#ff3f9e"/>
    </linearGradient>
    <linearGradient id="sun" x1="0" y1="0" x2="0" y2="1">
      <stop offset="0%" stop-color="#ffd65a"/>
      <stop offset="100%" stop-color="#ff8a2a"/>
    </linearGradient>
  </defs>
  <rect width="1024" height="1024" fill="url(#sky)"/>
  <circle cx="213" cy="289" r="1" fill="#23b6ff" opacity="1.00" />
<circle cx="592" cy="371" r="1" fill="#23b6ff" opacity="0.85" />
<circle cx="289" cy="256" r="2" fill="#23b6ff" opacity="0.85" />
<circle cx="578" cy="202" r="1" fill="#23b6ff" opacity="0.80" />
<circle cx="260" cy="184" r="1" fill="#23b6ff" opacity="0.58" />
<circle cx="330" cy="326" r="1" fill="#23b6ff" opacity="0.67" />
<circle cx="814" cy="347" r="1" fill="#23b6ff" opacity="0.94" />
<circle cx="40" cy="157" r="1" fill="#23b6ff" opacity="0.58" />
<circle cx="27" cy="383" r="1" fill="#23b6ff" opacity="0.58" />
<circle cx="189" cy="41" r="1" fill="#23b6ff" opacity="0.86" />
<circle cx="647" cy="387" r="1" fill="#23b6ff" opacity="0.65" />
<circle cx="644" cy="7" r="1" fill="#23b6ff" opacity="0.73" />
<circle cx="989" cy="363" r="2" fill="#23b6ff" opacity="0.73" />
<circle cx="745" cy="52" r="1" fill="#23b6ff" opacity="0.59" />
<circle cx="161" cy="117" r="1" fill="#23b6ff" opacity="0.99" />
<circle cx="18" cy="390" r="1" fill="#23b6ff" opacity="0.72" />
<circle cx="814" cy="104" r="1" fill="#23b6ff" opacity="0.85" />
<circle cx="579" cy="328" r="1" fill="#23b6ff" opacity="0.96" />
<circle cx="68" cy="227" r="2" fill="#23b6ff" opacity="0.41" />
<circle cx="716" cy="96" r="2" fill="#23b6ff" opacity="0.76" />
<circle cx="842" cy="98" r="1" fill="#23b6ff" opacity="0.42" />
<circle cx="261" cy="321" r="2" fill="#23b6ff" opacity="0.82" />
<circle cx="384" cy="397" r="1" fill="#23b6ff" opacity="0.83" />
<circle cx="8" cy="169" r="2" fill="#23b6ff" opacity="0.79" />
<circle cx="150" cy="254" r="1" fill="#23b6ff" opacity="0.49" />
<circle cx="987" cy="301" r="2" fill="#23b6ff" opacity="0.91" />
<circle cx="913" cy="119" r="1" fill="#23b6ff" opacity="0.74" />
<circle cx="338" cy="299" r="1" fill="#23b6ff" opacity="0.82" />
<circle cx="274" cy="330" r="1" fill="#23b6ff" opacity="0.76" />
<circle cx="719" cy="291" r="1" fill="#23b6ff" opacity="0.66" />
<circle cx="265" cy="161" r="1" fill="#23b6ff" opacity="0.95" />
<circle cx="70" cy="12" r="2" fill="#23b6ff" opacity="0.80" />
<circle cx="286" cy="139" r="1" fill="#23b6ff" opacity="0.53" />
<circle cx="555" cy="56" r="1" fill="#23b6ff" opacity="0.70" />
<circle cx="422" cy="62" r="2" fill="#23b6ff" opacity="0.98" />
<circle cx="714" cy="161" r="2" fill="#23b6ff" opacity="0.48" />
<circle cx="49" cy="355" r="2" fill="#23b6ff" opacity="0.72" />
<circle cx="874" cy="260" r="2" fill="#23b6ff" opacity="0.67" />
<circle cx="845" cy="196" r="1" fill="#23b6ff" opacity="0.56" />
<circle cx="17" cy="18" r="1" fill="#23b6ff" opacity="0.66" />
<circle cx="234" cy="133" r="1" fill="#23b6ff" opacity="0.47" />
<circle cx="75" cy="220" r="1" fill="#23b6ff" opacity="0.51" />
<circle cx="599" cy="210" r="2" fill="#23b6ff" opacity="0.73" />
<circle cx="0" cy="184" r="1" fill="#23b6ff" opacity="0.61" />
<circle cx="346" cy="16" r="2" fill="#23b6ff" opacity="0.82" />
<circle cx="109" cy="85" r="1" fill="#23b6ff" opacity="0.77" />
<circle cx="634" cy="295" r="1" fill="#23b6ff" opacity="0.95" />
<circle cx="789" cy="86" r="2" fill="#23b6ff" opacity="0.46" />
<circle cx="662" cy="31" r="1" fill="#23b6ff" opacity="0.85" />
<circle cx="651" cy="379" r="2" fill="#23b6ff" opacity="0.96" />
<circle cx="776" cy="143" r="2" fill="#23b6ff" opacity="0.89" />
<circle cx="344" cy="116" r="1" fill="#23b6ff" opacity="0.63" />
<circle cx="283" cy="304" r="1" fill="#23b6ff" opacity="0.47" />
<circle cx="285" cy="37" r="1" fill="#23b6ff" opacity="0.48" />
<circle cx="590" cy="410" r="1" fill="#23b6ff" opacity="0.98" />
<circle cx="823" cy="141" r="1" fill="#23b6ff" opacity="0.89" />
<circle cx="749" cy="90" r="2" fill="#23b6ff" opacity="0.91" />
<circle cx="522" cy="374" r="1" fill="#23b6ff" opacity="0.65" />
<circle cx="910" cy="1" r="1" fill="#23b6ff" opacity="0.79" />
<circle cx="656" cy="158" r="2" fill="#23b6ff" opacity="0.59" />
<circle cx="491" cy="223" r="1" fill="#23b6ff" opacity="0.43" />
<circle cx="68" cy="310" r="1" fill="#23b6ff" opacity="0.49" />
<circle cx="988" cy="241" r="1" fill="#23b6ff" opacity="0.76" />
<circle cx="389" cy="393" r="1" fill="#23b6ff" opacity="0.89" />
<circle cx="81" cy="314" r="2" fill="#23b6ff" opacity="0.68" />
<circle cx="795" cy="69" r="1" fill="#23b6ff" opacity="0.52" />
<circle cx="64" cy="9" r="1" fill="#23b6ff" opacity="0.51" />
<circle cx="331" cy="142" r="2" fill="#23b6ff" opacity="0.90" />
<circle cx="406" cy="341" r="1" fill="#23b6ff" opacity="0.64" />
<circle cx="883" cy="338" r="1" fill="#23b6ff" opacity="0.49" />
<circle cx="688" cy="89" r="1" fill="#23b6ff" opacity="0.53" />
<circle cx="1018" cy="67" r="1" fill="#23b6ff" opacity="0.52" />
<circle cx="821" cy="100" r="1" fill="#23b6ff" opacity="0.51" />
<circle cx="830" cy="282" r="2" fill="#23b6ff" opacity="0.60" />
<circle cx="311" cy="278" r="1" fill="#23b6ff" opacity="0.51" />
<circle cx="371" cy="84" r="1" fill="#23b6ff" opacity="0.99" />
<circle cx="425" cy="241" r="2" fill="#23b6ff" opacity="0.80" />
<circle cx="966" cy="365" r="1" fill="#23b6ff" opacity="0.51" />
<circle cx="34" cy="270" r="1" fill="#23b6ff" opacity="0.42" />
<circle cx="926" cy="350" r="1" fill="#23b6ff" opacity="0.58" />
<circle cx="164" cy="127" r="2" fill="#23b6ff" opacity="0.89" />
<circle cx="592" cy="20" r="2" fill="#23b6ff" opacity="0.46" />
<circle cx="399" cy="327" r="1" fill="#23b6ff" opacity="0.75" />
<circle cx="557" cy="137" r="1" fill="#23b6ff" opacity="0.65" />
<circle cx="212" cy="106" r="1" fill="#23b6ff" opacity="0.90" />
<circle cx="605" cy="200" r="2" fill="#23b6ff" opacity="0.91" />
<circle cx="1" cy="122" r="1" fill="#23b6ff" opacity="0.46" />
<circle cx="690" cy="235" r="1" fill="#23b6ff" opacity="0.70" />
<circle cx="1013" cy="403" r="1" fill="#23b6ff" opacity="0.91" />
<circle cx="148" cy="261" r="1" fill="#23b6ff" opacity="0.56" />
<circle cx="233" cy="419" r="1" fill="#23b6ff" opacity="0.44" />
<circle cx="877" cy="145" r="1" fill="#23b6ff" opacity="0.79" />
<circle cx="845" cy="328" r="1" fill="#23b6ff" opacity="0.60" />
<circle cx="897" cy="314" r="1" fill="#23b6ff" opacity="0.55" />
<circle cx="236" cy="37" r="1" fill="#23b6ff" opacity="0.79" />
<circle cx="67" cy="285" r="1" fill="#23b6ff" opacity="0.62" />
<circle cx="129" cy="401" r="2" fill="#23b6ff" opacity="0.68" />
<circle cx="233" cy="78" r="1" fill="#23b6ff" opacity="0.59" />
<circle cx="733" cy="245" r="1" fill="#23b6ff" opacity="0.98" />
<circle cx="660" cy="89" r="1" fill="#23b6ff" opacity="0.61" />
<circle cx="659" cy="140" r="1" fill="#23b6ff" opacity="0.68" />
<circle cx="889" cy="412" r="2" fill="#23b6ff" opacity="0.54" />
<circle cx="339" cy="190" r="1" fill="#23b6ff" opacity="0.69" />
<circle cx="216" cy="390" r="2" fill="#23b6ff" opacity="0.49" />
<circle cx="158" cy="301" r="2" fill="#23b6ff" opacity="0.53" />
<circle cx="206" cy="140" r="1" fill="#23b6ff" opacity="0.44" />
<circle cx="619" cy="5" r="1" fill="#23b6ff" opacity="0.86" />
<circle cx="350" cy="271" r="2" fill="#23b6ff" opacity="0.66" />
<circle cx="125" cy="120" r="2" fill="#23b6ff" opacity="0.82" />
<circle cx="838" cy="86" r="2" fill="#23b6ff" opacity="0.50" />
<circle cx="151" cy="253" r="1" fill="#23b6ff" opacity="0.57" />
<circle cx="423" cy="46" r="1" fill="#23b6ff" opacity="0.40" />
<circle cx="988" cy="304" r="2" fill="#23b6ff" opacity="0.90" />
<circle cx="871" cy="188" r="2" fill="#23b6ff" opacity="0.42" />
<circle cx="423" cy="312" r="1" fill="#23b6ff" opacity="0.85" />
<circle cx="988" cy="311" r="1" fill="#23b6ff" opacity="0.82" />
<circle cx="44" cy="330" r="1" fill="#23b6ff" opacity="0.51" />
<circle cx="419" cy="215" r="2" fill="#23b6ff" opacity="1.00" />
<circle cx="708" cy="241" r="1" fill="#23b6ff" opacity="0.94" />
<circle cx="646" cy="167" r="2" fill="#23b6ff" opacity="0.76" />
<circle cx="487" cy="190" r="1" fill="#23b6ff" opacity="0.81" />
<circle cx="383" cy="16" r="2" fill="#23b6ff" opacity="0.93" />
<circle cx="869" cy="74" r="2" fill="#23b6ff" opacity="0.50" />
<circle cx="460" cy="293" r="1" fill="#23b6ff" opacity="0.54" />
<circle cx="993" cy="165" r="2" fill="#23b6ff" opacity="0.71" />
<circle cx="224" cy="411" r="1" fill="#23b6ff" opacity="0.43" />
<circle cx="1008" cy="325" r="2" fill="#23b6ff" opacity="0.53" />
<circle cx="487" cy="227" r="1" fill="#23b6ff" opacity="0.72" />
<circle cx="1007" cy="338" r="1" fill="#23b6ff" opacity="0.93" />
<circle cx="272" cy="7" r="2" fill="#23b6ff" opacity="0.97" />
<circle cx="817" cy="151" r="1" fill="#23b6ff" opacity="0.64" />
<circle cx="323" cy="143" r="1" fill="#23b6ff" opacity="0.94" />
<circle cx="53" cy="117" r="2" fill="#23b6ff" opacity="0.94" />
<circle cx="587" cy="62" r="1" fill="#23b6ff" opacity="0.48" />
<circle cx="829" cy="184" r="1" fill="#23b6ff" opacity="0.97" />
<circle cx="382" cy="103" r="1" fill="#23b6ff" opacity="0.57" />
<circle cx="454" cy="4" r="1" fill="#23b6ff" opacity="0.54" />
<circle cx="216" cy="91" r="1" fill="#23b6ff" opacity="0.61" />
<circle cx="794" cy="11" r="1" fill="#23b6ff" opacity="0.91" />
<circle cx="870" cy="61" r="1" fill="#23b6ff" opacity="0.75" />
<circle cx="824" cy="382" r="1" fill="#23b6ff" opacity="0.79" />
<circle cx="99" cy="376" r="1" fill="#23b6ff" opacity="0.66" />
<circle cx="6" cy="87" r="1" fill="#23b6ff" opacity="0.61" />
<circle cx="98" cy="307" r="1" fill="#23b6ff" opacity="0.64" />
<circle cx="134" cy="26" r="1" fill="#23b6ff" opacity="0.51" />
<circle cx="647" cy="339" r="1" fill="#23b6ff" opacity="0.47" />
<circle cx="561" cy="126" r="2" fill="#23b6ff" opacity="0.62" />
<circle cx="612" cy="265" r="1" fill="#23b6ff" opacity="0.59" />
<circle cx="758" cy="264" r="1" fill="#23b6ff" opacity="0.44" />
<circle cx="564" cy="116" r="1" fill="#23b6ff" opacity="0.46" />
<circle cx="753" cy="154" r="1" fill="#23b6ff" opacity="0.93" />
<circle cx="789" cy="325" r="2" fill="#23b6ff" opacity="0.79" />
<circle cx="171" cy="99" r="1" fill="#23b6ff" opacity="0.85" />
<circle cx="120" cy="172" r="2" fill="#23b6ff" opacity="0.98" />
<circle cx="810" cy="60" r="2" fill="#23b6ff" opacity="0.41" />
<circle cx="264" cy="124" r="1" fill="#23b6ff" opacity="0.99" />
<circle cx="883" cy="171" r="1" fill="#23b6ff" opacity="0.76" />
<circle cx="23" cy="75" r="1" fill="#23b6ff" opacity="0.69" />
<circle cx="223" cy="402" r="1" fill="#23b6ff" opacity="0.98" />
<circle cx="111" cy="214" r="1" fill="#23b6ff" opacity="0.71" />
<circle cx="147" cy="398" r="2" fill="#23b6ff" opacity="0.63" />
<circle cx="995" cy="7" r="2" fill="#23b6ff" opacity="0.73" />
<circle cx="401" cy="59" r="1" fill="#23b6ff" opacity="0.86" />
<circle cx="75" cy="272" r="2" fill="#23b6ff" opacity="0.94" />
<circle cx="279" cy="19" r="1" fill="#23b6ff" opacity="0.75" />
<circle cx="939" cy="281" r="1" fill="#23b6ff" opacity="0.61" />
<circle cx="245" cy="335" r="1" fill="#23b6ff" opacity="0.69" />
<circle cx="515" cy="206" r="1" fill="#23b6ff" opacity="0.68" />
<circle cx="506" cy="362" r="1" fill="#23b6ff" opacity="0.51" />
<circle cx="957" cy="82" r="2" fill="#23b6ff" opacity="0.81" />
<circle cx="591" cy="115" r="1" fill="#23b6ff" opacity="0.71" />
<circle cx="732" cy="90" r="1" fill="#23b6ff" opacity="0.84" />
<circle cx="697" cy="234" r="1" fill="#23b6ff" opacity="0.59" />
<circle cx="722" cy="84" r="1" fill="#23b6ff" opacity="0.41" />
<circle cx="604" cy="192" r="1" fill="#23b6ff" opacity="0.45" />
<circle cx="610" cy="51" r="1" fill="#23b6ff" opacity="0.46" />
<circle cx="643" cy="254" r="1" fill="#23b6ff" opacity="0.99" />
<circle cx="183" cy="363" r="1" fill="#23b6ff" opacity="0.73" />
<circle cx="149" cy="316" r="1" fill="#23b6ff" opacity="0.97" />
<circle cx="957" cy="183" r="2" fill="#23b6ff" opacity="0.98" />
<circle cx="117" cy="244" r="2" fill="#23b6ff" opacity="0.89" />
<circle cx="733" cy="5" r="1" fill="#23b6ff" opacity="0.85" />
<circle cx="405" cy="270" r="1" fill="#23b6ff" opacity="0.81" />
<circle cx="766" cy="34" r="1" fill="#23b6ff" opacity="0.91" />
<circle cx="734" cy="245" r="1" fill="#23b6ff" opacity="0.87" />
<circle cx="296" cy="149" r="1" fill="#23b6ff" opacity="0.87" />
<circle cx="490" cy="77" r="1" fill="#23b6ff" opacity="0.74" />
<circle cx="735" cy="244" r="1" fill="#23b6ff" opacity="0.89" />
<circle cx="578" cy="253" r="2" fill="#23b6ff" opacity="0.91" />
<circle cx="901" cy="384" r="2" fill="#23b6ff" opacity="0.50" />
<circle cx="792" cy="377" r="2" fill="#23b6ff" opacity="0.91" />
<circle cx="864" cy="294" r="2" fill="#23b6ff" opacity="0.63" />
<circle cx="396" cy="48" r="1" fill="#23b6ff" opacity="0.52" />
<circle cx="767" cy="182" r="2" fill="#23b6ff" opacity="0.48" />
<circle cx="121" cy="109" r="1" fill="#23b6ff" opacity="0.76" />
<circle cx="791" cy="119" r="2" fill="#23b6ff" opacity="0.40" />
<circle cx="255" cy="320" r="1" fill="#23b6ff" opacity="0.88" />
<circle cx="966" cy="381" r="1" fill="#23b6ff" opacity="0.85" />
<circle cx="485" cy="125" r="1" fill="#23b6ff" opacity="0.91" />
<circle cx="599" cy="385" r="2" fill="#23b6ff" opacity="0.83" />
<circle cx="295" cy="269" r="2" fill="#23b6ff" opacity="0.92" />
<circle cx="830" cy="353" r="1" fill="#23b6ff" opacity="0.91" />
<circle cx="940" cy="221" r="1" fill="#23b6ff" opacity="0.88" />
<circle cx="370" cy="88" r="1" fill="#23b6ff" opacity="0.69" />
<circle cx="98" cy="347" r="1" fill="#23b6ff" opacity="0.92" />
<circle cx="133" cy="117" r="1" fill="#23b6ff" opacity="0.72" />
<circle cx="639" cy="257" r="2" fill="#23b6ff" opacity="0.75" />
<circle cx="0" cy="398" r="1" fill="#23b6ff" opacity="0.43" />
<circle cx="1001" cy="186" r="2" fill="#23b6ff" opacity="0.95" />
<circle cx="461" cy="289" r="1" fill="#23b6ff" opacity="0.79" />
<circle cx="779" cy="41" r="1" fill="#23b6ff" opacity="0.91" />
<circle cx="451" cy="117" r="1" fill="#23b6ff" opacity="0.78" />
<circle cx="417" cy="231" r="1" fill="#23b6ff" opacity="0.67" />
<circle cx="542" cy="74" r="1" fill="#23b6ff" opacity="0.96" />
<circle cx="473" cy="362" r="1" fill="#23b6ff" opacity="0.86" />
<circle cx="634" cy="96" r="1" fill="#23b6ff" opacity="0.55" />
<circle cx="347" cy="99" r="2" fill="#23b6ff" opacity="0.85" />
<circle cx="978" cy="200" r="2" fill="#23b6ff" opacity="0.59" />
<circle cx="596" cy="15" r="1" fill="#23b6ff" opacity="0.78" />
<circle cx="131" cy="368" r="1" fill="#23b6ff" opacity="0.73" />
  <circle cx="319" cy="378" r="149" fill="url(#sun)" opacity="0.95"/>
  <polygon points="0,1024 0,589 64,662 128,594 192,665 256,733 320,692 384,703 448,608 512,606 576,577 640,548 704,668 768,594 832,688 896,743 960,583 1024,698 1024,1024" fill="#091325"/>
  <text x="24" y="998" fill="#66ffd1" font-size="24" font-family="monospace">concept_bg_04_futurist_harbor</text>
</svg>