<svg xmlns="http://www.w3.org/2000/svg" width="1024" height="1024" viewBox="0 0 1024 1024">
  <defs>
    <linearGradient id="sky" x1="0" y1="0" x2="0" y2="1">
      <stop offset="0%" stop-color="#070b19"/>
      <stop offset="55%" stop-color="#1c2f6f"/>
      <stop offset="100%" stop-color="#ff3f9e"/>
    </linearGradient>
    <linearGradient id="sun" x1="0" y1="0" x2="0" y2="1">
      <stop offset="0%" stop-color="#ffd65a"/>
      <stop offset="100%" stop-color="#ff8a2a"/>
    </linearGradient>
  </defs>
  <rect width="1024" height="1024" fill="url(#sky)"/>
  <circle cx="844" cy="113" r="1" fill="#23b6ff" opacity="0.52" />
<circle cx="166" cy="182" r="2" fill="#23b6ff" opacity="0.67" />
<circle cx="484" cy="84" r="2" fill="#23b6ff" opacity="0.45" />
<circle cx="9" cy="338" r="1" fill="#23b6ff" opacity="0.88" />
<circle cx="723" cy="231" r="1" fill="#23b6ff" opacity="0.82" />
<circle cx="19" cy="200" r="1" fill="#23b6ff" opacity="0.58" />
<circle cx="780" cy="67" r="2" fill="#23b6ff" opacity="0.73" />
<circle cx="410" cy="61" r="2" fill="#23b6ff" opacity="0.86" />
<circle cx="727" cy="254" r="2" fill="#23b6ff" opacity="0.72" />
<circle cx="256" cy="244" r="1" fill="#23b6ff" opacity="0.50" />
<circle cx="950" cy="370" r="1" fill="#23b6ff" opacity="0.99" />
<circle cx="525" cy="55" r="2" fill="#23b6ff" opacity="0.63" />
<circle cx="468" cy="112" r="1" fill="#23b6ff" opacity="0.46" />
<circle cx="34" cy="313" r="2" fill="#23b6ff" opacity="0.57" />
<circle cx="914" cy="65" r="1" fill="#23b6ff" opacity="0.78" />
<circle cx="562" cy="372" r="2" fill="#23b6ff" opacity="0.52" />
<circle cx="655" cy="275" r="1" fill="#23b6ff" opacity="0.83" />
<circle cx="738" cy="158" r="1" fill="#23b6ff" opacity="0.51" />
<circle cx="925" cy="275" r="1" fill="#23b6ff" opacity="0.68" />
<circle cx="728" cy="268" r="2" fill="#23b6ff" opacity="0.91" />
<circle cx="457" cy="185" r="1" fill="#23b6ff" opacity="0.60" />
<circle cx="26" cy="103" r="1" fill="#23b6ff" opacity="0.95" />
<circle cx="896" cy="238" r="1" fill="#23b6ff" opacity="0.92" />
<circle cx="957" cy="139" r="1" fill="#23b6ff" opacity="0.97" />
<circle cx="468" cy="15" r="2" fill="#23b6ff" opacity="0.42" />
<circle cx="495" cy="34" r="1" fill="#23b6ff" opacity="0.99" />
<circle cx="945" cy="401" r="1" fill="#23b6ff" opacity="0.69" />
<circle cx="299" cy="395" r="1" fill="#23b6ff" opacity="0.87" />
<circle cx="421" cy="193" r="1" fill="#23b6ff" opacity="0.57" />
<circle cx="711" cy="123" r="1" fill="#23b6ff" opacity="0.82" />
<circle cx="844" cy="161" r="1" fill="#23b6ff" opacity="0.64" />
<circle cx="981" cy="106" r="2" fill="#23b6ff" opacity="0.95" />
<circle cx="1003" cy="49" r="1" fill="#23b6ff" opacity="0.61" />
<circle cx="519" cy="390" r="2" fill="#23b6ff" opacity="0.70" />
<circle cx="434" cy="33" r="1" fill="#23b6ff" opacity="0.98" />
<circle cx="255" cy="369" r="1" fill="#23b6ff" opacity="0.64" />
<circle cx="330" cy="232" r="1" fill="#23b6ff" opacity="0.97" />
<circle cx="336" cy="75" r="1" fill="#23b6ff" opacity="0.95" />
<circle cx="689" cy="71" r="2" fill="#23b6ff" opacity="0.74" />
<circle cx="230" cy="396" r="1" fill="#23b6ff" opacity="0.76" />
<circle cx="706" cy="402" r="1" fill="#23b6ff" opacity="0.53" />
<circle cx="409" cy="250" r="1" fill="#23b6ff" opacity="0.41" />
<circle cx="971" cy="27" r="2" fill="#23b6ff" opacity="0.43" />
<circle cx="41" cy="194" r="1" fill="#23b6ff" opacity="0.66" />
<circle cx="895" cy="402" r="2" fill="#23b6ff" opacity="0.75" />
<circle cx="879" cy="80" r="1" fill="#23b6ff" opacity="0.84" />
<circle cx="453" cy="10" r="2" fill="#23b6ff" opacity="0.87" />
<circle cx="673" cy="158" r="2" fill="#23b6ff" opacity="0.50" />
<circle cx="356" cy="389" r="1" fill="#23b6ff" opacity="0.73" />
<circle cx="1015" cy="217" r="1" fill="#23b6ff" opacity="0.79" />
<circle cx="104" cy="173" r="1" fill="#23b6ff" opacity="0.69" />
<circle cx="844" cy="54" r="1" fill="#23b6ff" opacity="1.00" />
<circle cx="321" cy="189" r="1" fill="#23b6ff" opacity="0.53" />
<circle cx="708" cy="64" r="1" fill="#23b6ff" opacity="0.62" />
<circle cx="455" cy="112" r="2" fill="#23b6ff" opacity="0.89" />
<circle cx="36" cy="45" r="2" fill="#23b6ff" opacity="0.56" />
<circle cx="174" cy="230" r="1" fill="#23b6ff" opacity="0.59" />
<circle cx="847" cy="403" r="1" fill="#23b6ff" opacity="0.43" />
<circle cx="138" cy="151" r="2" fill="#23b6ff" opacity="0.94" />
<circle cx="804" cy="373" r="1" fill="#23b6ff" opacity="0.51" />
<circle cx="134" cy="383" r="2" fill="#23b6ff" opacity="0.52" />
<circle cx="480" cy="245" r="2" fill="#23b6ff" opacity="0.83" />
<circle cx="891" cy="48" r="2" fill="#23b6ff" opacity="0.91" />
<circle cx="504" cy="9" r="2" fill="#23b6ff" opacity="0.99" />
<circle cx="283" cy="279" r="1" fill="#23b6ff" opacity="0.72" />
<circle cx="26" cy="77" r="1" fill="#23b6ff" opacity="0.81" />
<circle cx="831" cy="273" r="1" fill="#23b6ff" opacity="0.62" />
<circle cx="364" cy="243" r="2" fill="#23b6ff" opacity="0.75" />
<circle cx="331" cy="325" r="1" fill="#23b6ff" opacity="0.79" />
<circle cx="75" cy="282" r="1" fill="#23b6ff" opacity="0.59" />
<circle cx="1016" cy="272" r="1" fill="#23b6ff" opacity="0.59" />
<circle cx="495" cy="64" r="2" fill="#23b6ff" opacity="0.52" />
<circle cx="158" cy="168" r="2" fill="#23b6ff" opacity="0.57" />
<circle cx="831" cy="415" r="1" fill="#23b6ff" opacity="0.61" />
<circle cx="136" cy="278" r="2" fill="#23b6ff" opacity="0.75" />
<circle cx="821" cy="66" r="1" fill="#23b6ff" opacity="0.48" />
<circle cx="721" cy="258" r="1" fill="#23b6ff" opacity="0.62" />
<circle cx="557" cy="113" r="2" fill="#23b6ff" opacity="0.92" />
<circle cx="256" cy="122" r="1" fill="#23b6ff" opacity="0.85" />
<circle cx="254" cy="214" r="1" fill="#23b6ff" opacity="0.60" />
<circle cx="613" cy="317" r="1" fill="#23b6ff" opacity="0.70" />
<circle cx="225" cy="247" r="1" fill="#23b6ff" opacity="0.79" />
<circle cx="129" cy="149" r="1" fill="#23b6ff" opacity="0.61" />
<circle cx="9" cy="211" r="2" fill="#23b6ff" opacity="0.76" />
<circle cx="367" cy="259" r="1" fill="#23b6ff" opacity="0.43" />
<circle cx="761" cy="291" r="2" fill="#23b6ff" opacity="0.71" />
<circle cx="320" cy="417" r="2" fill="#23b6ff" opacity="0.83" />
<circle cx="811" cy="112" r="1" fill="#23b6ff" opacity="0.87" />
<circle cx="539" cy="323" r="1" fill="#23b6ff" opacity="0.94" />
<circle cx="714" cy="406" r="2" fill="#23b6ff" opacity="1.00" />
<circle cx="681" cy="300" r="2" fill="#23b6ff" opacity="0.95" />
<circle cx="904" cy="304" r="1" fill="#23b6ff" opacity="0.57" />
<circle cx="587" cy="273" r="1" fill="#23b6ff" opacity="0.62" />
<circle cx="606" cy="49" r="1" fill="#23b6ff" opacity="0.77" />
<circle cx="773" cy="14" r="1" fill="#23b6ff" opacity="0.88" />
<circle cx="119" cy="128" r="1" fill="#23b6ff" opacity="0.66" />
<circle cx="959" cy="32" r="1" fill="#23b6ff" opacity="0.92" />
<circle cx="478" cy="292" r="1" fill="#23b6ff" opacity="0.75" />
<circle cx="506" cy="161" r="2" fill="#23b6ff" opacity="0.90" />
<circle cx="336" cy="316" r="1" fill="#23b6ff" opacity="0.53" />
<circle cx="86" cy="220" r="2" fill="#23b6ff" opacity="0.53" />
<circle cx="431" cy="271" r="2" fill="#23b6ff" opacity="0.97" />
<circle cx="86" cy="116" r="1" fill="#23b6ff" opacity="0.86" />
<circle cx="860" cy="242" r="1" fill="#23b6ff" opacity="0.45" />
<circle cx="39" cy="94" r="1" fill="#23b6ff" opacity="0.89" />
<circle cx="195" cy="333" r="2" fill="#23b6ff" opacity="0.46" />
<circle cx="567" cy="214" r="1" fill="#23b6ff" opacity="0.99" />
<circle cx="977" cy="271" r="1" fill="#23b6ff" opacity="0.63" />
<circle cx="197" cy="175" r="1" fill="#23b6ff" opacity="0.54" />
<circle cx="193" cy="376" r="1" fill="#23b6ff" opacity="0.93" />
<circle cx="427" cy="229" r="1" fill="#23b6ff" opacity="0.48" />
<circle cx="455" cy="46" r="2" fill="#23b6ff" opacity="0.64" />
<circle cx="983" cy="281" r="2" fill="#23b6ff" opacity="0.40" />
<circle cx="718" cy="397" r="1" fill="#23b6ff" opacity="0.81" />
<circle cx="696" cy="299" r="2" fill="#23b6ff" opacity="0.42" />
<circle cx="912" cy="157" r="2" fill="#23b6ff" opacity="0.41" />
<circle cx="701" cy="296" r="1" fill="#23b6ff" opacity="0.92" />
<circle cx="120" cy="79" r="2" fill="#23b6ff" opacity="0.84" />
<circle cx="414" cy="159" r="1" fill="#23b6ff" opacity="0.84" />
<circle cx="28" cy="106" r="2" fill="#23b6ff" opacity="0.94" />
<circle cx="309" cy="406" r="2" fill="#23b6ff" opacity="0.74" />
<circle cx="452" cy="101" r="2" fill="#23b6ff" opacity="0.80" />
<circle cx="947" cy="21" r="1" fill="#23b6ff" opacity="0.89" />
<circle cx="620" cy="161" r="2" fill="#23b6ff" opacity="0.78" />
<circle cx="908" cy="246" r="2" fill="#23b6ff" opacity="0.69" />
<circle cx="189" cy="412" r="1" fill="#23b6ff" opacity="0.84" />
<circle cx="857" cy="370" r="1" fill="#23b6ff" opacity="0.67" />
<circle cx="207" cy="25" r="1" fill="#23b6ff" opacity="0.99" />
<circle cx="507" cy="247" r="1" fill="#23b6ff" opacity="0.95" />
<circle cx="486" cy="279" r="2" fill="#23b6ff" opacity="0.71" />
<circle cx="88" cy="97" r="1" fill="#23b6ff" opacity="0.96" />
<circle cx="67" cy="133" r="1" fill="#23b6ff" opacity="0.42" />
<circle cx="934" cy="372" r="1" fill="#23b6ff" opacity="0.47" />
<circle cx="465" cy="124" r="1" fill="#23b6ff" opacity="0.93" />
<circle cx="978" cy="387" r="1" fill="#23b6ff" opacity="0.60" />
<circle cx="66" cy="222" r="2" fill="#23b6ff" opacity="0.80" />
<circle cx="336" cy="218" r="2" fill="#23b6ff" opacity="0.55" />
<circle cx="231" cy="379" r="2" fill="#23b6ff" opacity="0.44" />
<circle cx="485" cy="288" r="1" fill="#23b6ff" opacity="0.98" />
<circle cx="888" cy="4" r="2" fill="#23b6ff" opacity="0.67" />
<circle cx="850" cy="231" r="1" fill="#23b6ff" opacity="0.68" />
<circle cx="978" cy="50" r="1" fill="#23b6ff" opacity="0.83" />
<circle cx="171" cy="351" r="2" fill="#23b6ff" opacity="0.44" />
<circle cx="491" cy="151" r="2" fill="#23b6ff" opacity="0.52" />
<circle cx="991" cy="114" r="1" fill="#23b6ff" opacity="0.97" />
<circle cx="1002" cy="385" r="1" fill="#23b6ff" opacity="0.46" />
<circle cx="315" cy="132" r="1" fill="#23b6ff" opacity="0.91" />
<circle cx="769" cy="363" r="1" fill="#23b6ff" opacity="0.88" />
<circle cx="818" cy="105" r="1" fill="#23b6ff" opacity="0.58" />
<circle cx="101" cy="84" r="2" fill="#23b6ff" opacity="0.61" />
<circle cx="244" cy="71" r="1" fill="#23b6ff" opacity="0.72" />
<circle cx="275" cy="219" r="1" fill="#23b6ff" opacity="0.72" />
<circle cx="940" cy="9" r="1" fill="#23b6ff" opacity="0.88" />
<circle cx="975" cy="191" r="2" fill="#23b6ff" opacity="0.60" />
<circle cx="596" cy="167" r="1" fill="#23b6ff" opacity="0.89" />
<circle cx="902" cy="232" r="1" fill="#23b6ff" opacity="0.69" />
<circle cx="806" cy="273" r="1" fill="#23b6ff" opacity="0.40" />
<circle cx="896" cy="138" r="1" fill="#23b6ff" opacity="0.73" />
<circle cx="286" cy="34" r="1" fill="#23b6ff" opacity="0.88" />
<circle cx="7" cy="60" r="1" fill="#23b6ff" opacity="0.96" />
<circle cx="79" cy="300" r="1" fill="#23b6ff" opacity="0.45" />
<circle cx="25" cy="45" r="1" fill="#23b6ff" opacity="0.73" />
<circle cx="7" cy="71" r="1" fill="#23b6ff" opacity="0.53" />
<circle cx="642" cy="252" r="1" fill="#23b6ff" opacity="0.53" />
<circle cx="317" cy="386" r="2" fill="#23b6ff" opacity="0.55" />
<circle cx="37" cy="87" r="1" fill="#23b6ff" opacity="0.49" />
<circle cx="362" cy="68" r="1" fill="#23b6ff" opacity="0.85" />
<circle cx="999" cy="376" r="1" fill="#23b6ff" opacity="0.89" />
<circle cx="191" cy="293" r="1" fill="#23b6ff" opacity="0.58" />
<circle cx="458" cy="70" r="1" fill="#23b6ff" opacity="0.76" />
<circle cx="172" cy="208" r="1" fill="#23b6ff" opacity="0.51" />
<circle cx="227" cy="144" r="1" fill="#23b6ff" opacity="0.92" />
<circle cx="562" cy="215" r="1" fill="#23b6ff" opacity="0.73" />
<circle cx="432" cy="320" r="2" fill="#23b6ff" opacity="0.42" />
<circle cx="49" cy="20" r="1" fill="#23b6ff" opacity="0.93" />
<circle cx="66" cy="204" r="2" fill="#23b6ff" opacity="0.43" />
<circle cx="960" cy="132" r="1" fill="#23b6ff" opacity="0.54" />
<circle cx="235" cy="62" r="1" fill="#23b6ff" opacity="0.64" />
<circle cx="520" cy="246" r="2" fill="#23b6ff" opacity="0.57" />
<circle cx="897" cy="1" r="1" fill="#23b6ff" opacity="0.76" />
<circle cx="190" cy="378" r="1" fill="#23b6ff" opacity="0.49" />
<circle cx="303" cy="277" r="1" fill="#23b6ff" opacity="0.59" />
<circle cx="520" cy="319" r="1" fill="#23b6ff" opacity="0.88" />
<circle cx="219" cy="132" r="1" fill="#23b6ff" opacity="0.46" />
<circle cx="944" cy="200" r="1" fill="#23b6ff" opacity="0.59" />
<circle cx="12" cy="220" r="2" fill="#23b6ff" opacity="0.62" />
<circle cx="321" cy="266" r="1" fill="#23b6ff" opacity="0.94" />
<circle cx="666" cy="147" r="1" fill="#23b6ff" opacity="0.88" />
<circle cx="934" cy="46" r="2" fill="#23b6ff" opacity="0.60" />
<circle cx="501" cy="174" r="1" fill="#23b6ff" opacity="0.83" />
<circle cx="492" cy="179" r="2" fill="#23b6ff" opacity="0.98" />
<circle cx="764" cy="387" r="1" fill="#23b6ff" opacity="0.79" />
<circle cx="0" cy="66" r="1" fill="#23b6ff" opacity="0.52" />
<circle cx="29" cy="112" r="2" fill="#23b6ff" opacity="0.41" />
<circle cx="647" cy="349" r="1" fill="#23b6ff" opacity="0.91" />
<circle cx="911" cy="141" r="2" fill="#23b6ff" opacity="0.55" />
<circle cx="844" cy="239" r="1" fill="#23b6ff" opacity="0.87" />
<circle cx="232" cy="387" r="2" fill="#23b6ff" opacity="0.46" />
<circle cx="529" cy="120" r="2" fill="#23b6ff" opacity="0.84" />
<circle cx="328" cy="58" r="1" fill="#23b6ff" opacity="0.93" />
<circle cx="872" cy="61" r="1" fill="#23b6ff" opacity="0.93" />
<circle cx="1000" cy="290" r="2" fill="#23b6ff" opacity="0.55" />
<circle cx="838" cy="381" r="1" fill="#23b6ff" opacity="0.68" />
<circle cx="161" cy="389" r="2" fill="#23b6ff" opacity="0.98" />
<circle cx="490" cy="53" r="2" fill="#23b6ff" opacity="1.00" />
<circle cx="739" cy="385" r="1" fill="#23b6ff" opacity="0.67" />
<circle cx="778" cy="324" r="2" fill="#23b6ff" opacity="0.44" />
<circle cx="573" cy="232" r="1" fill="#23b6ff" opacity="0.47" />
<circle cx="473" cy="111" r="1" fill="#23b6ff" opacity="0.90" />
<circle cx="101" cy="279" r="1" fill="#23b6ff" opacity="0.45" />
<circle cx="908" cy="344" r="2" fill="#23b6ff" opacity="0.73" />
<circle cx="367" cy="82" r="2" fill="#23b6ff" opacity="0.52" />
<circle cx="238" cy="385" r="1" fill="#23b6ff" opacity="0.62" />
<circle cx="201" cy="240" r="1" fill="#23b6ff" opacity="0.73" />
<circle cx="109" cy="192" r="1" fill="#23b6ff" opacity="0.46" />
<circle cx="878" cy="278" r="1" fill="#23b6ff" opacity="0.45" />
<circle cx="963" cy="416" r="2" fill="#23b6ff" opacity="0.99" />
<circle cx="757" cy="339" r="1" fill="#23b6ff" opacity="0.57" />
<circle cx="353" cy="361" r="2" fill="#23b6ff" opacity="0.96" />
<circle cx="594" cy="244" r="2" fill="#23b6ff" opacity="0.88" />
  <circle cx="614" cy="357" r="153" fill="url(#sun)" opacity="0.95"/>
  <polygon points="0,1024 0,601 64,742 128,747 192,749 256,678 320,697 384,541 448,681 512,557 576,542 640,638 704,682 768,609 832,682 896,607 960,719 1024,689 1024,1024" fill="#091325"/>
  <text x="24" y="998" fill="#66ffd1" font-size="24" font-family="monospace">concept_bg_05_retro_landscape</text>
</svg>