<svg xmlns="http://www.w3.org/2000/svg" width="1024" height="1024" viewBox="0 0 1024 1024">
  <defs>
    <linearGradient id="sky" x1="0" y1="0" x2="0" y2="1">
      <stop offset="0%" stop-color="#070b19"/>
      <stop offset="55%" stop-color="#1c2f6f"/>
      <stop offset="100%" stop-color="#ff3f9e"/>
    </linearGradient>
    <linearGradient id="sun" x1="0" y1="0" x2="0" y2="1">
      <stop offset="0%" stop-color="#ffd65a"/>
      <stop offset="100%" stop-color="#ff8a2a"/>
    </linearGradient>
  </defs>
  <rect width="1024" height="1024" fill="url(#sky)"/>
  <circle cx="986" cy="395" r="1" fill="#23b6ff" opacity="0.49" />
<circle cx="71" cy="366" r="1" fill="#23b6ff" opacity="0.63" />
<circle cx="119" cy="40" r="1" fill="#23b6ff" opacity="0.62" />
<circle cx="845" cy="65" r="2" fill="#23b6ff" opacity="0.44" />
<circle cx="890" cy="82" r="2" fill="#23b6ff" opacity="0.80" />
<circle cx="469" cy="374" r="2" fill="#23b6ff" opacity="0.61" />
<circle cx="513" cy="236" r="1" fill="#23b6ff" opacity="0.95" />
<circle cx="156" cy="241" r="2" fill="#23b6ff" opacity="0.69" />
<circle cx="1023" cy="16" r="2" fill="#23b6ff" opacity="0.77" />
<circle cx="601" cy="247" r="2" fill="#23b6ff" opacity="0.76" />
<circle cx="347" cy="228" r="1" fill="#23b6ff" opacity="0.66" />
<circle cx="766" cy="335" r="1" fill="#23b6ff" opacity="0.63" />
<circle cx="50" cy="206" r="2" fill="#23b6ff" opacity="0.73" />
<circle cx="830" cy="324" r="1" fill="#23b6ff" opacity="0.59" />
<circle cx="380" cy="355" r="1" fill="#23b6ff" opacity="0.90" />
<circle cx="311" cy="26" r="1" fill="#23b6ff" opacity="0.45" />
<circle cx="712" cy="305" r="1" fill="#23b6ff" opacity="0.76" />
<circle cx="267" cy="152" r="1" fill="#23b6ff" opacity="0.99" />
<circle cx="873" cy="297" r="1" fill="#23b6ff" opacity="0.85" />
<circle cx="467" cy="121" r="1" fill="#23b6ff" opacity="0.97" />
<circle cx="646" cy="305" r="1" fill="#23b6ff" opacity="0.69" />
<circle cx="589" cy="107" r="1" fill="#23b6ff" opacity="0.82" />
<circle cx="818" cy="100" r="2" fill="#23b6ff" opacity="0.74" />
<circle cx="924" cy="165" r="1" fill="#23b6ff" opacity="0.56" />
<circle cx="838" cy="169" r="2" fill="#23b6ff" opacity="0.81" />
<circle cx="736" cy="337" r="1" fill="#23b6ff" opacity="0.91" />
<circle cx="808" cy="150" r="1" fill="#23b6ff" opacity="0.94" />
<circle cx="133" cy="236" r="1" fill="#23b6ff" opacity="0.41" />
<circle cx="194" cy="47" r="1" fill="#23b6ff" opacity="0.83" />
<circle cx="187" cy="347" r="1" fill="#23b6ff" opacity="0.67" />
<circle cx="584" cy="152" r="1" fill="#23b6ff" opacity="0.51" />
<circle cx="322" cy="260" r="1" fill="#23b6ff" opacity="0.86" />
<circle cx="782" cy="38" r="2" fill="#23b6ff" opacity="0.64" />
<circle cx="13" cy="273" r="1" fill="#23b6ff" opacity="0.87" />
<circle cx="582" cy="72" r="2" fill="#23b6ff" opacity="0.51" />
<circle cx="985" cy="25" r="2" fill="#23b6ff" opacity="0.62" />
<circle cx="686" cy="304" r="1" fill="#23b6ff" opacity="0.45" />
<circle cx="673" cy="281" r="2" fill="#23b6ff" opacity="0.87" />
<circle cx="280" cy="405" r="1" fill="#23b6ff" opacity="0.47" />
<circle cx="631" cy="381" r="1" fill="#23b6ff" opacity="0.99" />
<circle cx="491" cy="367" r="1" fill="#23b6ff" opacity="0.85" />
<circle cx="953" cy="215" r="1" fill="#23b6ff" opacity="0.71" />
<circle cx="966" cy="35" r="1" fill="#23b6ff" opacity="0.65" />
<circle cx="408" cy="150" r="2" fill="#23b6ff" opacity="0.86" />
<circle cx="407" cy="245" r="1" fill="#23b6ff" opacity="0.72" />
<circle cx="92" cy="358" r="2" fill="#23b6ff" opacity="0.47" />
<circle cx="644" cy="267" r="1" fill="#23b6ff" opacity="0.96" />
<circle cx="704" cy="54" r="2" fill="#23b6ff" opacity="0.84" />
<circle cx="148" cy="216" r="1" fill="#23b6ff" opacity="0.55" />
<circle cx="597" cy="53" r="1" fill="#23b6ff" opacity="0.44" />
<circle cx="764" cy="272" r="1" fill="#23b6ff" opacity="0.54" />
<circle cx="844" cy="387" r="1" fill="#23b6ff" opacity="0.79" />
<circle cx="572" cy="268" r="1" fill="#23b6ff" opacity="0.53" />
<circle cx="826" cy="400" r="2" fill="#23b6ff" opacity="0.74" />
<circle cx="784" cy="251" r="1" fill="#23b6ff" opacity="0.58" />
<circle cx="518" cy="316" r="2" fill="#23b6ff" opacity="0.47" />
<circle cx="1010" cy="326" r="2" fill="#23b6ff" opacity="0.93" />
<circle cx="952" cy="185" r="1" fill="#23b6ff" opacity="0.61" />
<circle cx="63" cy="77" r="1" fill="#23b6ff" opacity="0.92" />
<circle cx="655" cy="190" r="1" fill="#23b6ff" opacity="0.99" />
<circle cx="818" cy="187" r="2" fill="#23b6ff" opacity="0.59" />
<circle cx="203" cy="88" r="1" fill="#23b6ff" opacity="0.57" />
<circle cx="506" cy="63" r="1" fill="#23b6ff" opacity="1.00" />
<circle cx="529" cy="80" r="1" fill="#23b6ff" opacity="0.87" />
<circle cx="634" cy="217" r="2" fill="#23b6ff" opacity="0.78" />
<circle cx="121" cy="413" r="2" fill="#23b6ff" opacity="0.96" />
<circle cx="206" cy="163" r="2" fill="#23b6ff" opacity="0.48" />
<circle cx="852" cy="65" r="2" fill="#23b6ff" opacity="0.64" />
<circle cx="818" cy="282" r="2" fill="#23b6ff" opacity="0.57" />
<circle cx="695" cy="147" r="2" fill="#23b6ff" opacity="0.68" />
<circle cx="774" cy="34" r="1" fill="#23b6ff" opacity="0.56" />
<circle cx="7" cy="259" r="1" fill="#23b6ff" opacity="0.63" />
<circle cx="328" cy="85" r="1" fill="#23b6ff" opacity="0.85" />
<circle cx="997" cy="316" r="2" fill="#23b6ff" opacity="0.49" />
<circle cx="854" cy="334" r="1" fill="#23b6ff" opacity="0.46" />
<circle cx="945" cy="172" r="2" fill="#23b6ff" opacity="0.49" />
<circle cx="724" cy="286" r="1" fill="#23b6ff" opacity="0.76" />
<circle cx="361" cy="39" r="1" fill="#23b6ff" opacity="0.61" />
<circle cx="100" cy="36" r="2" fill="#23b6ff" opacity="0.65" />
<circle cx="1015" cy="387" r="1" fill="#23b6ff" opacity="0.65" />
<circle cx="926" cy="143" r="1" fill="#23b6ff" opacity="0.94" />
<circle cx="659" cy="193" r="1" fill="#23b6ff" opacity="0.82" />
<circle cx="593" cy="368" r="2" fill="#23b6ff" opacity="0.56" />
<circle cx="838" cy="238" r="2" fill="#23b6ff" opacity="0.56" />
<circle cx="628" cy="286" r="2" fill="#23b6ff" opacity="0.56" />
<circle cx="95" cy="103" r="1" fill="#23b6ff" opacity="0.83" />
<circle cx="545" cy="258" r="2" fill="#23b6ff" opacity="0.47" />
<circle cx="519" cy="51" r="1" fill="#23b6ff" opacity="0.61" />
<circle cx="377" cy="47" r="1" fill="#23b6ff" opacity="0.71" />
<circle cx="1008" cy="310" r="2" fill="#23b6ff" opacity="0.72" />
<circle cx="916" cy="128" r="1" fill="#23b6ff" opacity="0.52" />
<circle cx="699" cy="403" r="1" fill="#23b6ff" opacity="0.48" />
<circle cx="207" cy="265" r="2" fill="#23b6ff" opacity="0.68" />
<circle cx="326" cy="49" r="1" fill="#23b6ff" opacity="0.44" />
<circle cx="892" cy="313" r="1" fill="#23b6ff" opacity="0.65" />
<circle cx="623" cy="229" r="1" fill="#23b6ff" opacity="0.89" />
<circle cx="901" cy="274" r="1" fill="#23b6ff" opacity="0.93" />
<circle cx="707" cy="203" r="1" fill="#23b6ff" opacity="0.71" />
<circle cx="138" cy="24" r="2" fill="#23b6ff" opacity="0.94" />
<circle cx="274" cy="198" r="1" fill="#23b6ff" opacity="0.79" />
<circle cx="4" cy="222" r="1" fill="#23b6ff" opacity="0.59" />
<circle cx="666" cy="16" r="2" fill="#23b6ff" opacity="0.70" />
<circle cx="522" cy="402" r="2" fill="#23b6ff" opacity="0.44" />
<circle cx="728" cy="367" r="2" fill="#23b6ff" opacity="0.65" />
<circle cx="985" cy="170" r="2" fill="#23b6ff" opacity="0.95" />
<circle cx="327" cy="213" r="2" fill="#23b6ff" opacity="0.88" />
<circle cx="211" cy="75" r="2" fill="#23b6ff" opacity="0.92" />
<circle cx="154" cy="189" r="1" fill="#23b6ff" opacity="0.73" />
<circle cx="492" cy="341" r="1" fill="#23b6ff" opacity="0.65" />
<circle cx="964" cy="334" r="1" fill="#23b6ff" opacity="0.75" />
<circle cx="356" cy="259" r="1" fill="#23b6ff" opacity="0.94" />
<circle cx="483" cy="122" r="1" fill="#23b6ff" opacity="0.72" />
<circle cx="990" cy="135" r="1" fill="#23b6ff" opacity="0.87" />
<circle cx="499" cy="63" r="1" fill="#23b6ff" opacity="0.40" />
<circle cx="585" cy="119" r="2" fill="#23b6ff" opacity="0.95" />
<circle cx="478" cy="120" r="1" fill="#23b6ff" opacity="0.60" />
<circle cx="227" cy="377" r="1" fill="#23b6ff" opacity="0.95" />
<circle cx="982" cy="230" r="2" fill="#23b6ff" opacity="0.84" />
<circle cx="895" cy="160" r="1" fill="#23b6ff" opacity="0.50" />
<circle cx="84" cy="69" r="1" fill="#23b6ff" opacity="0.71" />
<circle cx="905" cy="169" r="1" fill="#23b6ff" opacity="0.60" />
<circle cx="880" cy="170" r="2" fill="#23b6ff" opacity="0.97" />
<circle cx="18" cy="20" r="1" fill="#23b6ff" opacity="0.56" />
<circle cx="385" cy="283" r="1" fill="#23b6ff" opacity="0.45" />
<circle cx="990" cy="50" r="1" fill="#23b6ff" opacity="0.67" />
<circle cx="716" cy="64" r="1" fill="#23b6ff" opacity="0.82" />
<circle cx="743" cy="50" r="1" fill="#23b6ff" opacity="0.67" />
<circle cx="909" cy="276" r="2" fill="#23b6ff" opacity="0.47" />
<circle cx="831" cy="71" r="1" fill="#23b6ff" opacity="0.54" />
<circle cx="1023" cy="172" r="1" fill="#23b6ff" opacity="0.76" />
<circle cx="500" cy="205" r="1" fill="#23b6ff" opacity="0.76" />
<circle cx="709" cy="53" r="1" fill="#23b6ff" opacity="0.59" />
<circle cx="678" cy="69" r="2" fill="#23b6ff" opacity="0.90" />
<circle cx="878" cy="8" r="1" fill="#23b6ff" opacity="0.98" />
<circle cx="743" cy="159" r="1" fill="#23b6ff" opacity="0.74" />
<circle cx="414" cy="210" r="1" fill="#23b6ff" opacity="0.96" />
<circle cx="41" cy="14" r="1" fill="#23b6ff" opacity="0.68" />
<circle cx="402" cy="108" r="2" fill="#23b6ff" opacity="0.44" />
<circle cx="143" cy="188" r="1" fill="#23b6ff" opacity="0.49" />
<circle cx="910" cy="93" r="1" fill="#23b6ff" opacity="0.70" />
<circle cx="651" cy="50" r="1" fill="#23b6ff" opacity="0.77" />
<circle cx="64" cy="41" r="2" fill="#23b6ff" opacity="0.55" />
<circle cx="779" cy="390" r="1" fill="#23b6ff" opacity="0.61" />
<circle cx="543" cy="20" r="1" fill="#23b6ff" opacity="0.46" />
<circle cx="63" cy="290" r="2" fill="#23b6ff" opacity="0.89" />
<circle cx="880" cy="173" r="2" fill="#23b6ff" opacity="0.71" />
<circle cx="93" cy="65" r="2" fill="#23b6ff" opacity="0.73" />
<circle cx="42" cy="219" r="2" fill="#23b6ff" opacity="0.44" />
<circle cx="682" cy="318" r="1" fill="#23b6ff" opacity="0.46" />
<circle cx="110" cy="353" r="2" fill="#23b6ff" opacity="1.00" />
<circle cx="503" cy="119" r="1" fill="#23b6ff" opacity="0.89" />
<circle cx="735" cy="139" r="1" fill="#23b6ff" opacity="0.63" />
<circle cx="607" cy="118" r="2" fill="#23b6ff" opacity="0.58" />
<circle cx="596" cy="51" r="2" fill="#23b6ff" opacity="0.65" />
<circle cx="445" cy="73" r="1" fill="#23b6ff" opacity="0.52" />
<circle cx="286" cy="192" r="1" fill="#23b6ff" opacity="0.56" />
<circle cx="794" cy="2" r="2" fill="#23b6ff" opacity="0.84" />
<circle cx="60" cy="263" r="2" fill="#23b6ff" opacity="0.69" />
<circle cx="109" cy="420" r="1" fill="#23b6ff" opacity="0.99" />
<circle cx="124" cy="82" r="2" fill="#23b6ff" opacity="0.94" />
<circle cx="709" cy="177" r="2" fill="#23b6ff" opacity="0.59" />
<circle cx="523" cy="321" r="1" fill="#23b6ff" opacity="0.62" />
<circle cx="756" cy="186" r="2" fill="#23b6ff" opacity="0.58" />
<circle cx="66" cy="60" r="1" fill="#23b6ff" opacity="0.43" />
<circle cx="758" cy="84" r="1" fill="#23b6ff" opacity="0.77" />
<circle cx="731" cy="386" r="1" fill="#23b6ff" opacity="0.71" />
<circle cx="1011" cy="233" r="2" fill="#23b6ff" opacity="0.66" />
<circle cx="285" cy="146" r="1" fill="#23b6ff" opacity="0.65" />
<circle cx="250" cy="77" r="1" fill="#23b6ff" opacity="0.51" />
<circle cx="411" cy="281" r="1" fill="#23b6ff" opacity="0.88" />
<circle cx="413" cy="151" r="2" fill="#23b6ff" opacity="0.49" />
<circle cx="576" cy="65" r="1" fill="#23b6ff" opacity="0.68" />
<circle cx="69" cy="378" r="1" fill="#23b6ff" opacity="0.95" />
<circle cx="382" cy="98" r="2" fill="#23b6ff" opacity="0.91" />
<circle cx="465" cy="327" r="2" fill="#23b6ff" opacity="0.51" />
<circle cx="438" cy="151" r="2" fill="#23b6ff" opacity="0.50" />
<circle cx="936" cy="99" r="1" fill="#23b6ff" opacity="0.97" />
<circle cx="678" cy="336" r="1" fill="#23b6ff" opacity="0.72" />
<circle cx="513" cy="310" r="2" fill="#23b6ff" opacity="0.42" />
<circle cx="25" cy="90" r="1" fill="#23b6ff" opacity="0.82" />
<circle cx="666" cy="65" r="2" fill="#23b6ff" opacity="0.83" />
<circle cx="643" cy="120" r="2" fill="#23b6ff" opacity="0.89" />
<circle cx="869" cy="241" r="1" fill="#23b6ff" opacity="0.85" />
<circle cx="336" cy="281" r="1" fill="#23b6ff" opacity="0.65" />
<circle cx="803" cy="265" r="1" fill="#23b6ff" opacity="0.68" />
<circle cx="670" cy="26" r="1" fill="#23b6ff" opacity="0.79" />
<circle cx="313" cy="383" r="1" fill="#23b6ff" opacity="0.95" />
<circle cx="1019" cy="390" r="1" fill="#23b6ff" opacity="0.82" />
<circle cx="73" cy="385" r="2" fill="#23b6ff" opacity="0.99" />
<circle cx="103" cy="296" r="1" fill="#23b6ff" opacity="0.74" />
<circle cx="564" cy="56" r="2" fill="#23b6ff" opacity="0.81" />
<circle cx="20" cy="255" r="1" fill="#23b6ff" opacity="0.91" />
<circle cx="235" cy="369" r="1" fill="#23b6ff" opacity="0.41" />
<circle cx="719" cy="119" r="2" fill="#23b6ff" opacity="0.91" />
<circle cx="662" cy="31" r="1" fill="#23b6ff" opacity="0.77" />
<circle cx="625" cy="79" r="1" fill="#23b6ff" opacity="0.62" />
<circle cx="414" cy="61" r="1" fill="#23b6ff" opacity="0.83" />
<circle cx="681" cy="205" r="1" fill="#23b6ff" opacity="0.86" />
<circle cx="892" cy="323" r="1" fill="#23b6ff" opacity="0.47" />
<circle cx="208" cy="70" r="2" fill="#23b6ff" opacity="0.56" />
<circle cx="288" cy="189" r="1" fill="#23b6ff" opacity="0.57" />
<circle cx="90" cy="150" r="2" fill="#23b6ff" opacity="0.58" />
<circle cx="339" cy="53" r="1" fill="#23b6ff" opacity="0.58" />
<circle cx="799" cy="300" r="1" fill="#23b6ff" opacity="0.66" />
<circle cx="566" cy="397" r="1" fill="#23b6ff" opacity="0.81" />
<circle cx="1006" cy="176" r="2" fill="#23b6ff" opacity="0.99" />
<circle cx="492" cy="66" r="1" fill="#23b6ff" opacity="0.72" />
<circle cx="146" cy="175" r="2" fill="#23b6ff" opacity="0.98" />
<circle cx="222" cy="8" r="2" fill="#23b6ff" opacity="0.68" />
<circle cx="837" cy="54" r="1" fill="#23b6ff" opacity="0.90" />
<circle cx="767" cy="136" r="2" fill="#23b6ff" opacity="0.66" />
<circle cx="521" cy="255" r="1" fill="#23b6ff" opacity="0.69" />
<circle cx="84" cy="107" r="2" fill="#23b6ff" opacity="0.82" />
<circle cx="123" cy="272" r="1" fill="#23b6ff" opacity="0.71" />
<circle cx="375" cy="293" r="2" fill="#23b6ff" opacity="0.55" />
<circle cx="49" cy="375" r="1" fill="#23b6ff" opacity="0.80" />
<circle cx="268" cy="101" r="2" fill="#23b6ff" opacity="0.61" />
<circle cx="862" cy="122" r="1" fill="#23b6ff" opacity="0.51" />
<circle cx="1014" cy="160" r="1" fill="#23b6ff" opacity="0.80" />
<circle cx="626" cy="26" r="1" fill="#23b6ff" opacity="0.84" />
  <circle cx="558" cy="226" r="193" fill="url(#sun)" opacity="0.95"/>
  <polygon points="0,1024 0,593 64,732 128,735 192,696 256,551 320,638 384,658 448,572 512,665 576,760 640,710 704,720 768,730 832,647 896,735 960,716 1024,711 1024,1024" fill="#091325"/>
  <text x="24" y="998" fill="#66ffd1" font-size="24" font-family="monospace">concept_bg_01_nebula_horizon</text>
</svg>