<svg xmlns="http://www.w3.org/2000/svg" width="1024" height="1024" viewBox="0 0 1024 1024">
  <defs>
    <linearGradient id="sky" x1="0" y1="0" x2="0" y2="1">
      <stop offset="0%" stop-color="#070b19"/>
      <stop offset="55%" stop-color="#1c2f6f"/>
      <stop offset="100%" stop-color="#ff3f9e"/>
    </linearGradient>
    <linearGradient id="sun" x1="0" y1="0" x2="0" y2="1">
      <stop offset="0%" stop-color="#ffd65a"/>
      <stop offset="100%" stop-color="#ff8a2a"/>
    </linearGradient>
  </defs>
  <rect width="1024" height="1024" fill="url(#sky)"/>
  <circle cx="216" cy="382" r="2" fill="#23b6ff" opacity="0.62" />
<circle cx="863" cy="337" r="2" fill="#23b6ff" opacity="0.93" />
<circle cx="868" cy="81" r="1" fill="#23b6ff" opacity="0.73" />
<circle cx="64" cy="260" r="1" fill="#23b6ff" opacity="0.48" />
<circle cx="863" cy="120" r="2" fill="#23b6ff" opacity="0.62" />
<circle cx="152" cy="159" r="1" fill="#23b6ff" opacity="0.64" />
<circle cx="425" cy="143" r="2" fill="#23b6ff" opacity="0.97" />
<circle cx="314" cy="21" r="2" fill="#23b6ff" opacity="0.64" />
<circle cx="296" cy="335" r="1" fill="#23b6ff" opacity="0.99" />
<circle cx="857" cy="240" r="1" fill="#23b6ff" opacity="0.63" />
<circle cx="246" cy="328" r="2" fill="#23b6ff" opacity="0.78" />
<circle cx="653" cy="35" r="1" fill="#23b6ff" opacity="0.83" />
<circle cx="967" cy="119" r="1" fill="#23b6ff" opacity="0.79" />
<circle cx="352" cy="352" r="2" fill="#23b6ff" opacity="0.64" />
<circle cx="305" cy="38" r="1" fill="#23b6ff" opacity="0.61" />
<circle cx="164" cy="248" r="2" fill="#23b6ff" opacity="0.80" />
<circle cx="869" cy="68" r="1" fill="#23b6ff" opacity="0.67" />
<circle cx="195" cy="25" r="2" fill="#23b6ff" opacity="0.45" />
<circle cx="555" cy="191" r="1" fill="#23b6ff" opacity="0.73" />
<circle cx="79" cy="126" r="1" fill="#23b6ff" opacity="0.92" />
<circle cx="285" cy="245" r="1" fill="#23b6ff" opacity="0.57" />
<circle cx="253" cy="157" r="1" fill="#23b6ff" opacity="0.94" />
<circle cx="74" cy="67" r="2" fill="#23b6ff" opacity="0.94" />
<circle cx="669" cy="42" r="1" fill="#23b6ff" opacity="0.49" />
<circle cx="777" cy="146" r="1" fill="#23b6ff" opacity="0.65" />
<circle cx="455" cy="378" r="1" fill="#23b6ff" opacity="0.95" />
<circle cx="926" cy="144" r="1" fill="#23b6ff" opacity="0.75" />
<circle cx="878" cy="317" r="1" fill="#23b6ff" opacity="0.53" />
<circle cx="811" cy="118" r="1" fill="#23b6ff" opacity="0.44" />
<circle cx="346" cy="382" r="1" fill="#23b6ff" opacity="0.47" />
<circle cx="627" cy="232" r="2" fill="#23b6ff" opacity="0.63" />
<circle cx="945" cy="309" r="1" fill="#23b6ff" opacity="0.54" />
<circle cx="124" cy="90" r="1" fill="#23b6ff" opacity="0.87" />
<circle cx="642" cy="252" r="2" fill="#23b6ff" opacity="0.59" />
<circle cx="764" cy="142" r="1" fill="#23b6ff" opacity="0.66" />
<circle cx="118" cy="290" r="2" fill="#23b6ff" opacity="0.90" />
<circle cx="745" cy="416" r="1" fill="#23b6ff" opacity="0.66" />
<circle cx="443" cy="3" r="1" fill="#23b6ff" opacity="0.84" />
<circle cx="520" cy="353" r="2" fill="#23b6ff" opacity="0.61" />
<circle cx="760" cy="368" r="2" fill="#23b6ff" opacity="0.45" />
<circle cx="662" cy="165" r="2" fill="#23b6ff" opacity="0.65" />
<circle cx="298" cy="396" r="1" fill="#23b6ff" opacity="0.49" />
<circle cx="439" cy="280" r="1" fill="#23b6ff" opacity="0.75" />
<circle cx="961" cy="396" r="1" fill="#23b6ff" opacity="0.79" />
<circle cx="442" cy="244" r="1" fill="#23b6ff" opacity="0.71" />
<circle cx="683" cy="300" r="1" fill="#23b6ff" opacity="0.99" />
<circle cx="64" cy="340" r="1" fill="#23b6ff" opacity="0.47" />
<circle cx="811" cy="54" r="1" fill="#23b6ff" opacity="1.00" />
<circle cx="820" cy="37" r="1" fill="#23b6ff" opacity="0.67" />
<circle cx="1018" cy="266" r="1" fill="#23b6ff" opacity="0.82" />
<circle cx="340" cy="152" r="1" fill="#23b6ff" opacity="0.90" />
<circle cx="399" cy="377" r="1" fill="#23b6ff" opacity="0.53" />
<circle cx="20" cy="243" r="1" fill="#23b6ff" opacity="0.46" />
<circle cx="570" cy="386" r="1" fill="#23b6ff" opacity="0.68" />
<circle cx="618" cy="41" r="2" fill="#23b6ff" opacity="0.51" />
<circle cx="415" cy="145" r="1" fill="#23b6ff" opacity="0.53" />
<circle cx="44" cy="367" r="1" fill="#23b6ff" opacity="0.61" />
<circle cx="163" cy="323" r="2" fill="#23b6ff" opacity="0.63" />
<circle cx="683" cy="74" r="2" fill="#23b6ff" opacity="0.50" />
<circle cx="610" cy="79" r="1" fill="#23b6ff" opacity="0.69" />
<circle cx="733" cy="284" r="2" fill="#23b6ff" opacity="0.70" />
<circle cx="194" cy="211" r="2" fill="#23b6ff" opacity="0.46" />
<circle cx="146" cy="214" r="1" fill="#23b6ff" opacity="0.49" />
<circle cx="532" cy="368" r="2" fill="#23b6ff" opacity="0.44" />
<circle cx="397" cy="241" r="2" fill="#23b6ff" opacity="0.68" />
<circle cx="762" cy="377" r="1" fill="#23b6ff" opacity="0.78" />
<circle cx="276" cy="357" r="2" fill="#23b6ff" opacity="0.97" />
<circle cx="336" cy="253" r="1" fill="#23b6ff" opacity="0.52" />
<circle cx="971" cy="106" r="2" fill="#23b6ff" opacity="0.87" />
<circle cx="514" cy="347" r="2" fill="#23b6ff" opacity="0.91" />
<circle cx="491" cy="228" r="1" fill="#23b6ff" opacity="0.93" />
<circle cx="1016" cy="41" r="1" fill="#23b6ff" opacity="0.99" />
<circle cx="95" cy="333" r="1" fill="#23b6ff" opacity="0.66" />
<circle cx="351" cy="262" r="2" fill="#23b6ff" opacity="0.76" />
<circle cx="58" cy="153" r="2" fill="#23b6ff" opacity="0.51" />
<circle cx="55" cy="413" r="2" fill="#23b6ff" opacity="0.74" />
<circle cx="485" cy="203" r="1" fill="#23b6ff" opacity="0.88" />
<circle cx="143" cy="280" r="2" fill="#23b6ff" opacity="0.95" />
<circle cx="428" cy="395" r="1" fill="#23b6ff" opacity="0.99" />
<circle cx="925" cy="173" r="2" fill="#23b6ff" opacity="0.90" />
<circle cx="537" cy="1" r="1" fill="#23b6ff" opacity="0.88" />
<circle cx="971" cy="238" r="1" fill="#23b6ff" opacity="0.69" />
<circle cx="721" cy="21" r="1" fill="#23b6ff" opacity="0.78" />
<circle cx="353" cy="20" r="2" fill="#23b6ff" opacity="0.43" />
<circle cx="594" cy="84" r="2" fill="#23b6ff" opacity="0.64" />
<circle cx="226" cy="380" r="2" fill="#23b6ff" opacity="0.79" />
<circle cx="740" cy="295" r="1" fill="#23b6ff" opacity="0.72" />
<circle cx="179" cy="366" r="1" fill="#23b6ff" opacity="0.73" />
<circle cx="798" cy="114" r="1" fill="#23b6ff" opacity="0.92" />
<circle cx="917" cy="342" r="2" fill="#23b6ff" opacity="0.86" />
<circle cx="88" cy="154" r="2" fill="#23b6ff" opacity="0.74" />
<circle cx="187" cy="38" r="1" fill="#23b6ff" opacity="0.50" />
<circle cx="1" cy="326" r="2" fill="#23b6ff" opacity="0.96" />
<circle cx="246" cy="304" r="2" fill="#23b6ff" opacity="0.62" />
<circle cx="739" cy="150" r="2" fill="#23b6ff" opacity="0.95" />
<circle cx="488" cy="407" r="1" fill="#23b6ff" opacity="0.53" />
<circle cx="89" cy="303" r="2" fill="#23b6ff" opacity="0.81" />
<circle cx="731" cy="371" r="1" fill="#23b6ff" opacity="0.71" />
<circle cx="891" cy="90" r="1" fill="#23b6ff" opacity="0.77" />
<circle cx="361" cy="405" r="1" fill="#23b6ff" opacity="0.70" />
<circle cx="863" cy="51" r="2" fill="#23b6ff" opacity="0.50" />
<circle cx="622" cy="166" r="2" fill="#23b6ff" opacity="0.66" />
<circle cx="830" cy="334" r="1" fill="#23b6ff" opacity="0.85" />
<circle cx="15" cy="144" r="2" fill="#23b6ff" opacity="0.79" />
<circle cx="847" cy="99" r="1" fill="#23b6ff" opacity="0.93" />
<circle cx="699" cy="75" r="1" fill="#23b6ff" opacity="0.49" />
<circle cx="160" cy="419" r="2" fill="#23b6ff" opacity="0.61" />
<circle cx="770" cy="379" r="2" fill="#23b6ff" opacity="0.75" />
<circle cx="484" cy="238" r="1" fill="#23b6ff" opacity="0.71" />
<circle cx="235" cy="348" r="1" fill="#23b6ff" opacity="0.53" />
<circle cx="864" cy="394" r="1" fill="#23b6ff" opacity="0.55" />
<circle cx="233" cy="212" r="2" fill="#23b6ff" opacity="0.69" />
<circle cx="431" cy="69" r="2" fill="#23b6ff" opacity="1.00" />
<circle cx="400" cy="273" r="1" fill="#23b6ff" opacity="0.43" />
<circle cx="731" cy="345" r="1" fill="#23b6ff" opacity="0.62" />
<circle cx="965" cy="322" r="2" fill="#23b6ff" opacity="0.95" />
<circle cx="923" cy="186" r="1" fill="#23b6ff" opacity="0.45" />
<circle cx="197" cy="6" r="1" fill="#23b6ff" opacity="0.81" />
<circle cx="747" cy="283" r="1" fill="#23b6ff" opacity="0.78" />
<circle cx="749" cy="46" r="1" fill="#23b6ff" opacity="0.77" />
<circle cx="867" cy="94" r="2" fill="#23b6ff" opacity="0.47" />
<circle cx="957" cy="124" r="1" fill="#23b6ff" opacity="0.93" />
<circle cx="279" cy="102" r="1" fill="#23b6ff" opacity="0.41" />
<circle cx="10" cy="288" r="1" fill="#23b6ff" opacity="0.65" />
<circle cx="853" cy="401" r="2" fill="#23b6ff" opacity="0.51" />
<circle cx="391" cy="125" r="2" fill="#23b6ff" opacity="0.85" />
<circle cx="219" cy="174" r="2" fill="#23b6ff" opacity="0.63" />
<circle cx="832" cy="355" r="1" fill="#23b6ff" opacity="0.87" />
<circle cx="914" cy="37" r="1" fill="#23b6ff" opacity="0.72" />
<circle cx="258" cy="197" r="1" fill="#23b6ff" opacity="0.93" />
<circle cx="634" cy="340" r="2" fill="#23b6ff" opacity="0.68" />
<circle cx="94" cy="131" r="1" fill="#23b6ff" opacity="0.59" />
<circle cx="930" cy="275" r="1" fill="#23b6ff" opacity="0.68" />
<circle cx="121" cy="285" r="1" fill="#23b6ff" opacity="0.84" />
<circle cx="869" cy="76" r="1" fill="#23b6ff" opacity="0.45" />
<circle cx="496" cy="96" r="1" fill="#23b6ff" opacity="0.43" />
<circle cx="145" cy="213" r="1" fill="#23b6ff" opacity="0.67" />
<circle cx="291" cy="248" r="2" fill="#23b6ff" opacity="0.74" />
<circle cx="196" cy="142" r="1" fill="#23b6ff" opacity="0.61" />
<circle cx="87" cy="126" r="2" fill="#23b6ff" opacity="0.60" />
<circle cx="525" cy="314" r="2" fill="#23b6ff" opacity="0.96" />
<circle cx="793" cy="184" r="2" fill="#23b6ff" opacity="0.68" />
<circle cx="503" cy="386" r="1" fill="#23b6ff" opacity="0.61" />
<circle cx="532" cy="272" r="2" fill="#23b6ff" opacity="0.56" />
<circle cx="654" cy="263" r="1" fill="#23b6ff" opacity="0.81" />
<circle cx="148" cy="270" r="1" fill="#23b6ff" opacity="0.83" />
<circle cx="805" cy="399" r="1" fill="#23b6ff" opacity="0.70" />
<circle cx="994" cy="128" r="1" fill="#23b6ff" opacity="0.82" />
<circle cx="100" cy="11" r="1" fill="#23b6ff" opacity="0.83" />
<circle cx="997" cy="103" r="1" fill="#23b6ff" opacity="0.97" />
<circle cx="171" cy="341" r="1" fill="#23b6ff" opacity="0.48" />
<circle cx="130" cy="351" r="2" fill="#23b6ff" opacity="0.87" />
<circle cx="484" cy="399" r="1" fill="#23b6ff" opacity="0.87" />
<circle cx="150" cy="91" r="1" fill="#23b6ff" opacity="0.42" />
<circle cx="317" cy="380" r="2" fill="#23b6ff" opacity="0.77" />
<circle cx="581" cy="153" r="1" fill="#23b6ff" opacity="0.67" />
<circle cx="261" cy="398" r="1" fill="#23b6ff" opacity="0.44" />
<circle cx="152" cy="273" r="2" fill="#23b6ff" opacity="0.86" />
<circle cx="497" cy="338" r="2" fill="#23b6ff" opacity="0.49" />
<circle cx="933" cy="142" r="2" fill="#23b6ff" opacity="0.57" />
<circle cx="1004" cy="87" r="2" fill="#23b6ff" opacity="0.61" />
<circle cx="119" cy="78" r="1" fill="#23b6ff" opacity="0.65" />
<circle cx="576" cy="292" r="1" fill="#23b6ff" opacity="0.61" />
<circle cx="263" cy="59" r="2" fill="#23b6ff" opacity="0.70" />
<circle cx="411" cy="270" r="1" fill="#23b6ff" opacity="0.70" />
<circle cx="420" cy="306" r="1" fill="#23b6ff" opacity="0.68" />
<circle cx="82" cy="61" r="1" fill="#23b6ff" opacity="0.77" />
<circle cx="746" cy="379" r="1" fill="#23b6ff" opacity="0.57" />
<circle cx="365" cy="141" r="2" fill="#23b6ff" opacity="0.75" />
<circle cx="749" cy="190" r="1" fill="#23b6ff" opacity="0.97" />
<circle cx="727" cy="299" r="1" fill="#23b6ff" opacity="0.69" />
<circle cx="93" cy="31" r="2" fill="#23b6ff" opacity="0.85" />
<circle cx="339" cy="272" r="1" fill="#23b6ff" opacity="0.63" />
<circle cx="898" cy="314" r="2" fill="#23b6ff" opacity="0.90" />
<circle cx="317" cy="334" r="1" fill="#23b6ff" opacity="0.82" />
<circle cx="808" cy="11" r="1" fill="#23b6ff" opacity="0.94" />
<circle cx="69" cy="341" r="2" fill="#23b6ff" opacity="0.98" />
<circle cx="820" cy="107" r="2" fill="#23b6ff" opacity="0.96" />
<circle cx="336" cy="151" r="1" fill="#23b6ff" opacity="0.68" />
<circle cx="8" cy="291" r="2" fill="#23b6ff" opacity="0.63" />
<circle cx="185" cy="176" r="1" fill="#23b6ff" opacity="0.41" />
<circle cx="88" cy="241" r="2" fill="#23b6ff" opacity="0.53" />
<circle cx="193" cy="11" r="1" fill="#23b6ff" opacity="0.61" />
<circle cx="653" cy="350" r="1" fill="#23b6ff" opacity="0.87" />
<circle cx="29" cy="40" r="1" fill="#23b6ff" opacity="0.40" />
<circle cx="558" cy="196" r="1" fill="#23b6ff" opacity="0.71" />
<circle cx="764" cy="132" r="1" fill="#23b6ff" opacity="0.61" />
<circle cx="184" cy="312" r="1" fill="#23b6ff" opacity="0.85" />
<circle cx="722" cy="175" r="1" fill="#23b6ff" opacity="0.46" />
<circle cx="206" cy="182" r="1" fill="#23b6ff" opacity="0.73" />
<circle cx="299" cy="385" r="1" fill="#23b6ff" opacity="0.53" />
<circle cx="725" cy="304" r="1" fill="#23b6ff" opacity="0.61" />
<circle cx="761" cy="187" r="1" fill="#23b6ff" opacity="0.60" />
<circle cx="103" cy="52" r="1" fill="#23b6ff" opacity="0.66" />
<circle cx="432" cy="360" r="1" fill="#23b6ff" opacity="0.45" />
<circle cx="602" cy="226" r="1" fill="#23b6ff" opacity="0.46" />
<circle cx="516" cy="351" r="1" fill="#23b6ff" opacity="0.86" />
<circle cx="711" cy="35" r="2" fill="#23b6ff" opacity="0.83" />
<circle cx="938" cy="296" r="1" fill="#23b6ff" opacity="0.61" />
<circle cx="389" cy="171" r="1" fill="#23b6ff" opacity="0.83" />
<circle cx="659" cy="69" r="2" fill="#23b6ff" opacity="0.71" />
<circle cx="463" cy="273" r="2" fill="#23b6ff" opacity="0.99" />
<circle cx="480" cy="9" r="1" fill="#23b6ff" opacity="0.66" />
<circle cx="231" cy="97" r="2" fill="#23b6ff" opacity="0.79" />
<circle cx="304" cy="19" r="2" fill="#23b6ff" opacity="0.86" />
<circle cx="934" cy="62" r="1" fill="#23b6ff" opacity="0.43" />
<circle cx="865" cy="410" r="2" fill="#23b6ff" opacity="0.75" />
<circle cx="168" cy="241" r="2" fill="#23b6ff" opacity="0.57" />
<circle cx="880" cy="273" r="2" fill="#23b6ff" opacity="0.47" />
<circle cx="444" cy="44" r="1" fill="#23b6ff" opacity="0.96" />
<circle cx="440" cy="73" r="2" fill="#23b6ff" opacity="0.70" />
<circle cx="379" cy="42" r="1" fill="#23b6ff" opacity="0.74" />
<circle cx="408" cy="46" r="1" fill="#23b6ff" opacity="0.73" />
<circle cx="386" cy="114" r="2" fill="#23b6ff" opacity="0.94" />
<circle cx="903" cy="401" r="2" fill="#23b6ff" opacity="0.77" />
<circle cx="577" cy="358" r="1" fill="#23b6ff" opacity="0.63" />
<circle cx="372" cy="176" r="2" fill="#23b6ff" opacity="0.44" />
<circle cx="809" cy="356" r="1" fill="#23b6ff" opacity="0.78" />
<circle cx="482" cy="136" r="1" fill="#23b6ff" opacity="0.93" />
<circle cx="620" cy="14" r="2" fill="#23b6ff" opacity="0.88" />
  <circle cx="671" cy="251" r="148" fill="url(#sun)" opacity="0.95"/>
  <polygon points="0,1024 0,658 64,624 128,735 192,749 256,717 320,634 384,593 448,646 512,756 576,698 640,632 704,686 768,566 832,696 896,668 960,627 1024,691 1024,1024" fill="#091325"/>
  <text x="24" y="998" fill="#66ffd1" font-size="24" font-family="monospace">concept_bg_06_orbital_desert</text>
</svg>