<svg xmlns="http://www.w3.org/2000/svg" width="1024" height="1024" viewBox="0 0 1024 1024">
  <defs>
    <linearGradient id="sky" x1="0" y1="0" x2="0" y2="1">
      <stop offset="0%" stop-color="#070b19"/>
      <stop offset="55%" stop-color="#1c2f6f"/>
      <stop offset="100%" stop-color="#ff3f9e"/>
    </linearGradient>
    <linearGradient id="sun" x1="0" y1="0" x2="0" y2="1">
      <stop offset="0%" stop-color="#ffd65a"/>
      <stop offset="100%" stop-color="#ff8a2a"/>
    </linearGradient>
  </defs>
  <rect width="1024" height="1024" fill="url(#sky)"/>
  <circle cx="327" cy="270" r="1" fill="#23b6ff" opacity="0.61" />
<circle cx="717" cy="29" r="1" fill="#23b6ff" opacity="0.69" />
<circle cx="536" cy="351" r="1" fill="#23b6ff" opacity="0.72" />
<circle cx="655" cy="397" r="1" fill="#23b6ff" opacity="0.91" />
<circle cx="221" cy="363" r="2" fill="#23b6ff" opacity="0.52" />
<circle cx="1004" cy="367" r="2" fill="#23b6ff" opacity="0.52" />
<circle cx="41" cy="311" r="2" fill="#23b6ff" opacity="0.58" />
<circle cx="459" cy="19" r="1" fill="#23b6ff" opacity="0.55" />
<circle cx="998" cy="337" r="2" fill="#23b6ff" opacity="0.72" />
<circle cx="723" cy="56" r="1" fill="#23b6ff" opacity="0.47" />
<circle cx="780" cy="241" r="2" fill="#23b6ff" opacity="0.59" />
<circle cx="267" cy="292" r="1" fill="#23b6ff" opacity="0.76" />
<circle cx="640" cy="287" r="1" fill="#23b6ff" opacity="0.86" />
<circle cx="441" cy="272" r="2" fill="#23b6ff" opacity="0.82" />
<circle cx="356" cy="243" r="2" fill="#23b6ff" opacity="0.56" />
<circle cx="283" cy="99" r="1" fill="#23b6ff" opacity="0.52" />
<circle cx="933" cy="189" r="2" fill="#23b6ff" opacity="0.65" />
<circle cx="21" cy="309" r="2" fill="#23b6ff" opacity="0.68" />
<circle cx="16" cy="89" r="1" fill="#23b6ff" opacity="0.47" />
<circle cx="314" cy="404" r="2" fill="#23b6ff" opacity="0.72" />
<circle cx="12" cy="276" r="1" fill="#23b6ff" opacity="0.42" />
<circle cx="761" cy="32" r="1" fill="#23b6ff" opacity="0.43" />
<circle cx="637" cy="125" r="2" fill="#23b6ff" opacity="0.72" />
<circle cx="158" cy="414" r="1" fill="#23b6ff" opacity="0.43" />
<circle cx="48" cy="358" r="1" fill="#23b6ff" opacity="0.57" />
<circle cx="260" cy="273" r="1" fill="#23b6ff" opacity="0.96" />
<circle cx="318" cy="7" r="1" fill="#23b6ff" opacity="0.72" />
<circle cx="485" cy="7" r="1" fill="#23b6ff" opacity="0.57" />
<circle cx="440" cy="225" r="2" fill="#23b6ff" opacity="0.70" />
<circle cx="533" cy="158" r="1" fill="#23b6ff" opacity="0.74" />
<circle cx="523" cy="84" r="1" fill="#23b6ff" opacity="0.96" />
<circle cx="910" cy="310" r="2" fill="#23b6ff" opacity="0.53" />
<circle cx="590" cy="124" r="2" fill="#23b6ff" opacity="0.75" />
<circle cx="393" cy="181" r="1" fill="#23b6ff" opacity="0.73" />
<circle cx="574" cy="116" r="1" fill="#23b6ff" opacity="0.95" />
<circle cx="245" cy="334" r="1" fill="#23b6ff" opacity="0.84" />
<circle cx="517" cy="65" r="2" fill="#23b6ff" opacity="0.89" />
<circle cx="496" cy="56" r="2" fill="#23b6ff" opacity="0.52" />
<circle cx="104" cy="383" r="1" fill="#23b6ff" opacity="0.90" />
<circle cx="541" cy="389" r="2" fill="#23b6ff" opacity="0.79" />
<circle cx="510" cy="95" r="2" fill="#23b6ff" opacity="0.54" />
<circle cx="823" cy="233" r="2" fill="#23b6ff" opacity="0.49" />
<circle cx="796" cy="416" r="2" fill="#23b6ff" opacity="0.88" />
<circle cx="294" cy="115" r="1" fill="#23b6ff" opacity="0.57" />
<circle cx="858" cy="41" r="1" fill="#23b6ff" opacity="0.72" />
<circle cx="340" cy="378" r="1" fill="#23b6ff" opacity="0.66" />
<circle cx="671" cy="82" r="1" fill="#23b6ff" opacity="0.95" />
<circle cx="643" cy="252" r="1" fill="#23b6ff" opacity="0.79" />
<circle cx="249" cy="95" r="1" fill="#23b6ff" opacity="0.53" />
<circle cx="779" cy="1" r="2" fill="#23b6ff" opacity="0.58" />
<circle cx="673" cy="10" r="2" fill="#23b6ff" opacity="0.97" />
<circle cx="582" cy="401" r="1" fill="#23b6ff" opacity="0.85" />
<circle cx="967" cy="367" r="1" fill="#23b6ff" opacity="0.94" />
<circle cx="254" cy="62" r="1" fill="#23b6ff" opacity="0.76" />
<circle cx="264" cy="43" r="1" fill="#23b6ff" opacity="0.69" />
<circle cx="480" cy="300" r="1" fill="#23b6ff" opacity="0.45" />
<circle cx="503" cy="130" r="1" fill="#23b6ff" opacity="0.54" />
<circle cx="238" cy="249" r="2" fill="#23b6ff" opacity="0.46" />
<circle cx="328" cy="275" r="2" fill="#23b6ff" opacity="0.66" />
<circle cx="708" cy="172" r="1" fill="#23b6ff" opacity="0.91" />
<circle cx="631" cy="243" r="2" fill="#23b6ff" opacity="0.72" />
<circle cx="190" cy="221" r="1" fill="#23b6ff" opacity="0.64" />
<circle cx="249" cy="279" r="2" fill="#23b6ff" opacity="0.69" />
<circle cx="839" cy="95" r="2" fill="#23b6ff" opacity="0.95" />
<circle cx="208" cy="204" r="2" fill="#23b6ff" opacity="0.68" />
<circle cx="859" cy="85" r="1" fill="#23b6ff" opacity="0.48" />
<circle cx="281" cy="77" r="1" fill="#23b6ff" opacity="0.92" />
<circle cx="85" cy="33" r="2" fill="#23b6ff" opacity="0.42" />
<circle cx="736" cy="193" r="1" fill="#23b6ff" opacity="0.74" />
<circle cx="986" cy="6" r="2" fill="#23b6ff" opacity="0.63" />
<circle cx="834" cy="335" r="1" fill="#23b6ff" opacity="0.69" />
<circle cx="702" cy="113" r="1" fill="#23b6ff" opacity="0.83" />
<circle cx="676" cy="280" r="1" fill="#23b6ff" opacity="0.58" />
<circle cx="588" cy="194" r="2" fill="#23b6ff" opacity="0.96" />
<circle cx="268" cy="56" r="1" fill="#23b6ff" opacity="0.49" />
<circle cx="370" cy="286" r="1" fill="#23b6ff" opacity="0.77" />
<circle cx="583" cy="76" r="2" fill="#23b6ff" opacity="0.96" />
<circle cx="130" cy="139" r="2" fill="#23b6ff" opacity="0.65" />
<circle cx="546" cy="403" r="2" fill="#23b6ff" opacity="0.67" />
<circle cx="784" cy="103" r="2" fill="#23b6ff" opacity="0.99" />
<circle cx="54" cy="334" r="2" fill="#23b6ff" opacity="0.47" />
<circle cx="34" cy="138" r="1" fill="#23b6ff" opacity="0.90" />
<circle cx="96" cy="22" r="1" fill="#23b6ff" opacity="0.57" />
<circle cx="728" cy="350" r="1" fill="#23b6ff" opacity="0.45" />
<circle cx="633" cy="210" r="2" fill="#23b6ff" opacity="0.57" />
<circle cx="897" cy="290" r="2" fill="#23b6ff" opacity="0.70" />
<circle cx="387" cy="418" r="1" fill="#23b6ff" opacity="0.49" />
<circle cx="970" cy="363" r="1" fill="#23b6ff" opacity="0.82" />
<circle cx="93" cy="399" r="1" fill="#23b6ff" opacity="0.98" />
<circle cx="743" cy="226" r="2" fill="#23b6ff" opacity="0.40" />
<circle cx="1020" cy="413" r="2" fill="#23b6ff" opacity="0.76" />
<circle cx="351" cy="289" r="1" fill="#23b6ff" opacity="0.74" />
<circle cx="273" cy="145" r="1" fill="#23b6ff" opacity="0.53" />
<circle cx="268" cy="251" r="2" fill="#23b6ff" opacity="0.77" />
<circle cx="696" cy="389" r="1" fill="#23b6ff" opacity="0.61" />
<circle cx="544" cy="276" r="1" fill="#23b6ff" opacity="0.46" />
<circle cx="429" cy="272" r="1" fill="#23b6ff" opacity="0.72" />
<circle cx="540" cy="141" r="2" fill="#23b6ff" opacity="0.76" />
<circle cx="533" cy="334" r="1" fill="#23b6ff" opacity="0.62" />
<circle cx="286" cy="343" r="1" fill="#23b6ff" opacity="0.76" />
<circle cx="923" cy="133" r="1" fill="#23b6ff" opacity="0.78" />
<circle cx="174" cy="346" r="1" fill="#23b6ff" opacity="0.77" />
<circle cx="734" cy="100" r="2" fill="#23b6ff" opacity="0.99" />
<circle cx="417" cy="412" r="2" fill="#23b6ff" opacity="0.45" />
<circle cx="912" cy="25" r="2" fill="#23b6ff" opacity="1.00" />
<circle cx="742" cy="175" r="1" fill="#23b6ff" opacity="0.44" />
<circle cx="856" cy="306" r="1" fill="#23b6ff" opacity="0.47" />
<circle cx="736" cy="59" r="1" fill="#23b6ff" opacity="1.00" />
<circle cx="328" cy="6" r="1" fill="#23b6ff" opacity="0.73" />
<circle cx="602" cy="322" r="2" fill="#23b6ff" opacity="0.65" />
<circle cx="98" cy="254" r="2" fill="#23b6ff" opacity="0.79" />
<circle cx="284" cy="185" r="2" fill="#23b6ff" opacity="0.80" />
<circle cx="528" cy="244" r="1" fill="#23b6ff" opacity="0.81" />
<circle cx="529" cy="162" r="1" fill="#23b6ff" opacity="0.97" />
<circle cx="767" cy="301" r="1" fill="#23b6ff" opacity="0.44" />
<circle cx="666" cy="342" r="1" fill="#23b6ff" opacity="0.61" />
<circle cx="787" cy="376" r="1" fill="#23b6ff" opacity="0.74" />
<circle cx="444" cy="398" r="2" fill="#23b6ff" opacity="0.88" />
<circle cx="87" cy="313" r="1" fill="#23b6ff" opacity="0.76" />
<circle cx="659" cy="342" r="1" fill="#23b6ff" opacity="0.72" />
<circle cx="235" cy="74" r="2" fill="#23b6ff" opacity="0.98" />
<circle cx="663" cy="261" r="2" fill="#23b6ff" opacity="0.49" />
<circle cx="675" cy="99" r="1" fill="#23b6ff" opacity="0.93" />
<circle cx="966" cy="253" r="1" fill="#23b6ff" opacity="0.55" />
<circle cx="279" cy="289" r="2" fill="#23b6ff" opacity="0.43" />
<circle cx="810" cy="229" r="2" fill="#23b6ff" opacity="0.79" />
<circle cx="70" cy="168" r="2" fill="#23b6ff" opacity="0.91" />
<circle cx="244" cy="203" r="1" fill="#23b6ff" opacity="0.61" />
<circle cx="712" cy="6" r="1" fill="#23b6ff" opacity="0.71" />
<circle cx="139" cy="7" r="1" fill="#23b6ff" opacity="0.72" />
<circle cx="248" cy="24" r="2" fill="#23b6ff" opacity="0.71" />
<circle cx="600" cy="332" r="1" fill="#23b6ff" opacity="0.91" />
<circle cx="932" cy="87" r="1" fill="#23b6ff" opacity="0.78" />
<circle cx="311" cy="373" r="2" fill="#23b6ff" opacity="0.91" />
<circle cx="90" cy="193" r="2" fill="#23b6ff" opacity="0.82" />
<circle cx="560" cy="406" r="1" fill="#23b6ff" opacity="0.72" />
<circle cx="563" cy="410" r="1" fill="#23b6ff" opacity="0.94" />
<circle cx="281" cy="213" r="2" fill="#23b6ff" opacity="0.57" />
<circle cx="31" cy="75" r="2" fill="#23b6ff" opacity="0.87" />
<circle cx="312" cy="61" r="2" fill="#23b6ff" opacity="0.97" />
<circle cx="688" cy="114" r="1" fill="#23b6ff" opacity="0.74" />
<circle cx="61" cy="171" r="2" fill="#23b6ff" opacity="0.95" />
<circle cx="319" cy="166" r="1" fill="#23b6ff" opacity="0.74" />
<circle cx="958" cy="241" r="1" fill="#23b6ff" opacity="0.61" />
<circle cx="137" cy="278" r="1" fill="#23b6ff" opacity="0.92" />
<circle cx="424" cy="31" r="2" fill="#23b6ff" opacity="0.52" />
<circle cx="551" cy="234" r="1" fill="#23b6ff" opacity="0.65" />
<circle cx="551" cy="269" r="2" fill="#23b6ff" opacity="0.97" />
<circle cx="418" cy="343" r="1" fill="#23b6ff" opacity="0.65" />
<circle cx="190" cy="193" r="1" fill="#23b6ff" opacity="0.48" />
<circle cx="61" cy="129" r="1" fill="#23b6ff" opacity="0.83" />
<circle cx="690" cy="351" r="2" fill="#23b6ff" opacity="0.57" />
<circle cx="791" cy="200" r="2" fill="#23b6ff" opacity="0.83" />
<circle cx="914" cy="75" r="2" fill="#23b6ff" opacity="0.51" />
<circle cx="186" cy="241" r="2" fill="#23b6ff" opacity="0.83" />
<circle cx="666" cy="372" r="1" fill="#23b6ff" opacity="0.94" />
<circle cx="754" cy="117" r="1" fill="#23b6ff" opacity="0.92" />
<circle cx="133" cy="191" r="1" fill="#23b6ff" opacity="0.70" />
<circle cx="855" cy="134" r="2" fill="#23b6ff" opacity="0.54" />
<circle cx="125" cy="218" r="1" fill="#23b6ff" opacity="0.88" />
<circle cx="1000" cy="250" r="2" fill="#23b6ff" opacity="0.76" />
<circle cx="550" cy="312" r="2" fill="#23b6ff" opacity="0.55" />
<circle cx="553" cy="239" r="2" fill="#23b6ff" opacity="0.49" />
<circle cx="633" cy="368" r="2" fill="#23b6ff" opacity="0.59" />
<circle cx="888" cy="295" r="1" fill="#23b6ff" opacity="0.78" />
<circle cx="699" cy="78" r="2" fill="#23b6ff" opacity="0.64" />
<circle cx="415" cy="366" r="1" fill="#23b6ff" opacity="0.73" />
<circle cx="456" cy="85" r="1" fill="#23b6ff" opacity="0.70" />
<circle cx="890" cy="290" r="2" fill="#23b6ff" opacity="0.51" />
<circle cx="716" cy="386" r="1" fill="#23b6ff" opacity="0.66" />
<circle cx="537" cy="362" r="1" fill="#23b6ff" opacity="0.60" />
<circle cx="901" cy="84" r="2" fill="#23b6ff" opacity="0.53" />
<circle cx="313" cy="9" r="1" fill="#23b6ff" opacity="0.65" />
<circle cx="93" cy="179" r="1" fill="#23b6ff" opacity="0.51" />
<circle cx="59" cy="294" r="2" fill="#23b6ff" opacity="0.59" />
<circle cx="929" cy="391" r="1" fill="#23b6ff" opacity="0.43" />
<circle cx="609" cy="298" r="2" fill="#23b6ff" opacity="0.92" />
<circle cx="831" cy="419" r="1" fill="#23b6ff" opacity="0.79" />
<circle cx="442" cy="122" r="1" fill="#23b6ff" opacity="0.84" />
<circle cx="147" cy="279" r="2" fill="#23b6ff" opacity="0.54" />
<circle cx="130" cy="182" r="1" fill="#23b6ff" opacity="0.45" />
<circle cx="531" cy="392" r="1" fill="#23b6ff" opacity="0.44" />
<circle cx="355" cy="180" r="1" fill="#23b6ff" opacity="0.63" />
<circle cx="968" cy="29" r="1" fill="#23b6ff" opacity="0.85" />
<circle cx="408" cy="385" r="1" fill="#23b6ff" opacity="0.91" />
<circle cx="312" cy="18" r="2" fill="#23b6ff" opacity="0.89" />
<circle cx="251" cy="299" r="1" fill="#23b6ff" opacity="0.58" />
<circle cx="809" cy="261" r="2" fill="#23b6ff" opacity="0.91" />
<circle cx="28" cy="341" r="2" fill="#23b6ff" opacity="0.63" />
<circle cx="833" cy="298" r="1" fill="#23b6ff" opacity="0.44" />
<circle cx="779" cy="171" r="1" fill="#23b6ff" opacity="0.48" />
<circle cx="293" cy="357" r="1" fill="#23b6ff" opacity="0.70" />
<circle cx="695" cy="328" r="1" fill="#23b6ff" opacity="0.69" />
<circle cx="9" cy="79" r="1" fill="#23b6ff" opacity="0.43" />
<circle cx="480" cy="22" r="1" fill="#23b6ff" opacity="0.42" />
<circle cx="520" cy="132" r="1" fill="#23b6ff" opacity="0.71" />
<circle cx="731" cy="172" r="1" fill="#23b6ff" opacity="0.45" />
<circle cx="72" cy="315" r="1" fill="#23b6ff" opacity="0.51" />
<circle cx="342" cy="90" r="2" fill="#23b6ff" opacity="0.81" />
<circle cx="42" cy="110" r="1" fill="#23b6ff" opacity="0.98" />
<circle cx="35" cy="182" r="1" fill="#23b6ff" opacity="0.65" />
<circle cx="864" cy="52" r="1" fill="#23b6ff" opacity="0.77" />
<circle cx="555" cy="408" r="1" fill="#23b6ff" opacity="0.51" />
<circle cx="363" cy="229" r="2" fill="#23b6ff" opacity="0.68" />
<circle cx="113" cy="150" r="1" fill="#23b6ff" opacity="0.68" />
<circle cx="563" cy="139" r="2" fill="#23b6ff" opacity="0.91" />
<circle cx="241" cy="389" r="1" fill="#23b6ff" opacity="0.43" />
<circle cx="694" cy="188" r="1" fill="#23b6ff" opacity="0.96" />
<circle cx="335" cy="75" r="1" fill="#23b6ff" opacity="0.68" />
<circle cx="667" cy="362" r="1" fill="#23b6ff" opacity="0.97" />
<circle cx="369" cy="92" r="1" fill="#23b6ff" opacity="0.89" />
<circle cx="625" cy="247" r="2" fill="#23b6ff" opacity="0.60" />
<circle cx="119" cy="51" r="2" fill="#23b6ff" opacity="0.49" />
<circle cx="669" cy="75" r="2" fill="#23b6ff" opacity="0.78" />
<circle cx="452" cy="337" r="2" fill="#23b6ff" opacity="0.47" />
<circle cx="546" cy="414" r="2" fill="#23b6ff" opacity="0.54" />
<circle cx="17" cy="64" r="1" fill="#23b6ff" opacity="0.78" />
<circle cx="809" cy="198" r="2" fill="#23b6ff" opacity="0.55" />
<circle cx="774" cy="218" r="1" fill="#23b6ff" opacity="0.79" />
<circle cx="765" cy="162" r="1" fill="#23b6ff" opacity="0.62" />
  <circle cx="709" cy="296" r="156" fill="url(#sun)" opacity="0.95"/>
  <polygon points="0,1024 0,624 64,564 128,702 192,734 256,677 320,593 384,717 448,662 512,739 576,605 640,692 704,545 768,623 832,671 896,631 960,578 1024,642 1024,1024" fill="#091325"/>
  <text x="24" y="998" fill="#66ffd1" font-size="24" font-family="monospace">concept_bg_03_moon_outpost</text>
</svg>