<svg xmlns="http://www.w3.org/2000/svg" width="1024" height="1024" viewBox="0 0 1024 1024">
  <defs>
    <linearGradient id="sky" x1="0" y1="0" x2="0" y2="1">
      <stop offset="0%" stop-color="#070b19"/>
      <stop offset="55%" stop-color="#1c2f6f"/>
      <stop offset="100%" stop-color="#ff3f9e"/>
    </linearGradient>
    <linearGradient id="sun" x1="0" y1="0" x2="0" y2="1">
      <stop offset="0%" stop-color="#ffd65a"/>
      <stop offset="100%" stop-color="#ff8a2a"/>
    </linearGradient>
  </defs>
  <rect width="1024" height="1024" fill="url(#sky)"/>
  <circle cx="913" cy="313" r="1" fill="#23b6ff" opacity="0.62" />
<circle cx="623" cy="281" r="1" fill="#23b6ff" opacity="0.89" />
<circle cx="651" cy="345" r="1" fill="#23b6ff" opacity="0.47" />
<circle cx="241" cy="66" r="2" fill="#23b6ff" opacity="0.90" />
<circle cx="526" cy="253" r="1" fill="#23b6ff" opacity="0.87" />
<circle cx="95" cy="309" r="1" fill="#23b6ff" opacity="0.85" />
<circle cx="187" cy="238" r="1" fill="#23b6ff" opacity="0.57" />
<circle cx="178" cy="269" r="2" fill="#23b6ff" opacity="0.51" />
<circle cx="171" cy="332" r="2" fill="#23b6ff" opacity="0.78" />
<circle cx="109" cy="107" r="1" fill="#23b6ff" opacity="0.58" />
<circle cx="220" cy="18" r="1" fill="#23b6ff" opacity="0.72" />
<circle cx="290" cy="277" r="2" fill="#23b6ff" opacity="0.66" />
<circle cx="367" cy="389" r="2" fill="#23b6ff" opacity="0.73" />
<circle cx="468" cy="317" r="2" fill="#23b6ff" opacity="0.90" />
<circle cx="160" cy="275" r="1" fill="#23b6ff" opacity="0.84" />
<circle cx="557" cy="24" r="1" fill="#23b6ff" opacity="0.92" />
<circle cx="315" cy="165" r="1" fill="#23b6ff" opacity="0.88" />
<circle cx="271" cy="119" r="2" fill="#23b6ff" opacity="0.50" />
<circle cx="277" cy="187" r="1" fill="#23b6ff" opacity="0.84" />
<circle cx="843" cy="139" r="1" fill="#23b6ff" opacity="0.45" />
<circle cx="710" cy="397" r="1" fill="#23b6ff" opacity="0.85" />
<circle cx="465" cy="16" r="2" fill="#23b6ff" opacity="0.67" />
<circle cx="660" cy="246" r="1" fill="#23b6ff" opacity="0.67" />
<circle cx="272" cy="419" r="1" fill="#23b6ff" opacity="0.49" />
<circle cx="25" cy="145" r="1" fill="#23b6ff" opacity="0.66" />
<circle cx="527" cy="335" r="1" fill="#23b6ff" opacity="0.56" />
<circle cx="56" cy="295" r="1" fill="#23b6ff" opacity="0.48" />
<circle cx="475" cy="390" r="1" fill="#23b6ff" opacity="0.85" />
<circle cx="74" cy="355" r="2" fill="#23b6ff" opacity="0.78" />
<circle cx="952" cy="93" r="1" fill="#23b6ff" opacity="0.43" />
<circle cx="84" cy="79" r="2" fill="#23b6ff" opacity="0.72" />
<circle cx="446" cy="296" r="2" fill="#23b6ff" opacity="0.99" />
<circle cx="330" cy="158" r="1" fill="#23b6ff" opacity="0.75" />
<circle cx="530" cy="281" r="1" fill="#23b6ff" opacity="0.66" />
<circle cx="401" cy="261" r="1" fill="#23b6ff" opacity="0.83" />
<circle cx="17" cy="255" r="1" fill="#23b6ff" opacity="0.58" />
<circle cx="928" cy="175" r="1" fill="#23b6ff" opacity="0.48" />
<circle cx="257" cy="38" r="1" fill="#23b6ff" opacity="0.98" />
<circle cx="440" cy="306" r="2" fill="#23b6ff" opacity="0.76" />
<circle cx="628" cy="328" r="1" fill="#23b6ff" opacity="0.89" />
<circle cx="499" cy="392" r="2" fill="#23b6ff" opacity="0.81" />
<circle cx="295" cy="76" r="2" fill="#23b6ff" opacity="0.88" />
<circle cx="398" cy="150" r="1" fill="#23b6ff" opacity="0.67" />
<circle cx="952" cy="239" r="1" fill="#23b6ff" opacity="0.45" />
<circle cx="481" cy="118" r="1" fill="#23b6ff" opacity="0.95" />
<circle cx="498" cy="238" r="2" fill="#23b6ff" opacity="0.64" />
<circle cx="197" cy="74" r="2" fill="#23b6ff" opacity="0.65" />
<circle cx="329" cy="250" r="1" fill="#23b6ff" opacity="0.63" />
<circle cx="690" cy="295" r="1" fill="#23b6ff" opacity="0.89" />
<circle cx="242" cy="84" r="1" fill="#23b6ff" opacity="0.67" />
<circle cx="468" cy="115" r="2" fill="#23b6ff" opacity="0.43" />
<circle cx="566" cy="297" r="1" fill="#23b6ff" opacity="0.56" />
<circle cx="639" cy="275" r="1" fill="#23b6ff" opacity="0.66" />
<circle cx="875" cy="212" r="1" fill="#23b6ff" opacity="0.40" />
<circle cx="334" cy="55" r="1" fill="#23b6ff" opacity="0.82" />
<circle cx="208" cy="97" r="2" fill="#23b6ff" opacity="0.93" />
<circle cx="91" cy="157" r="1" fill="#23b6ff" opacity="0.52" />
<circle cx="8" cy="252" r="2" fill="#23b6ff" opacity="0.77" />
<circle cx="312" cy="114" r="1" fill="#23b6ff" opacity="0.74" />
<circle cx="940" cy="157" r="2" fill="#23b6ff" opacity="0.79" />
<circle cx="511" cy="288" r="1" fill="#23b6ff" opacity="0.42" />
<circle cx="1008" cy="333" r="1" fill="#23b6ff" opacity="0.81" />
<circle cx="243" cy="225" r="2" fill="#23b6ff" opacity="0.47" />
<circle cx="653" cy="334" r="1" fill="#23b6ff" opacity="0.86" />
<circle cx="1014" cy="164" r="1" fill="#23b6ff" opacity="0.81" />
<circle cx="314" cy="125" r="2" fill="#23b6ff" opacity="0.91" />
<circle cx="31" cy="185" r="2" fill="#23b6ff" opacity="0.78" />
<circle cx="159" cy="153" r="1" fill="#23b6ff" opacity="0.77" />
<circle cx="351" cy="216" r="2" fill="#23b6ff" opacity="0.89" />
<circle cx="188" cy="311" r="2" fill="#23b6ff" opacity="0.61" />
<circle cx="743" cy="397" r="1" fill="#23b6ff" opacity="0.79" />
<circle cx="526" cy="106" r="2" fill="#23b6ff" opacity="0.69" />
<circle cx="56" cy="181" r="2" fill="#23b6ff" opacity="0.55" />
<circle cx="665" cy="341" r="1" fill="#23b6ff" opacity="0.66" />
<circle cx="413" cy="297" r="1" fill="#23b6ff" opacity="0.43" />
<circle cx="266" cy="132" r="1" fill="#23b6ff" opacity="0.40" />
<circle cx="918" cy="122" r="1" fill="#23b6ff" opacity="0.53" />
<circle cx="732" cy="195" r="2" fill="#23b6ff" opacity="0.49" />
<circle cx="872" cy="253" r="1" fill="#23b6ff" opacity="0.42" />
<circle cx="635" cy="192" r="2" fill="#23b6ff" opacity="0.66" />
<circle cx="606" cy="48" r="1" fill="#23b6ff" opacity="0.68" />
<circle cx="745" cy="368" r="1" fill="#23b6ff" opacity="0.73" />
<circle cx="380" cy="233" r="1" fill="#23b6ff" opacity="0.70" />
<circle cx="391" cy="270" r="2" fill="#23b6ff" opacity="0.90" />
<circle cx="610" cy="328" r="1" fill="#23b6ff" opacity="0.44" />
<circle cx="473" cy="125" r="2" fill="#23b6ff" opacity="0.50" />
<circle cx="448" cy="250" r="1" fill="#23b6ff" opacity="0.76" />
<circle cx="736" cy="353" r="1" fill="#23b6ff" opacity="0.88" />
<circle cx="207" cy="262" r="1" fill="#23b6ff" opacity="0.95" />
<circle cx="393" cy="309" r="2" fill="#23b6ff" opacity="0.92" />
<circle cx="303" cy="418" r="1" fill="#23b6ff" opacity="0.77" />
<circle cx="678" cy="380" r="1" fill="#23b6ff" opacity="0.51" />
<circle cx="195" cy="197" r="2" fill="#23b6ff" opacity="0.43" />
<circle cx="693" cy="395" r="2" fill="#23b6ff" opacity="0.65" />
<circle cx="126" cy="107" r="1" fill="#23b6ff" opacity="0.51" />
<circle cx="913" cy="337" r="2" fill="#23b6ff" opacity="0.93" />
<circle cx="656" cy="341" r="2" fill="#23b6ff" opacity="0.88" />
<circle cx="1002" cy="11" r="2" fill="#23b6ff" opacity="0.45" />
<circle cx="376" cy="17" r="2" fill="#23b6ff" opacity="0.93" />
<circle cx="519" cy="11" r="1" fill="#23b6ff" opacity="0.79" />
<circle cx="240" cy="61" r="2" fill="#23b6ff" opacity="0.97" />
<circle cx="943" cy="184" r="1" fill="#23b6ff" opacity="0.52" />
<circle cx="656" cy="15" r="1" fill="#23b6ff" opacity="0.91" />
<circle cx="509" cy="412" r="2" fill="#23b6ff" opacity="0.94" />
<circle cx="223" cy="142" r="1" fill="#23b6ff" opacity="0.65" />
<circle cx="496" cy="57" r="2" fill="#23b6ff" opacity="0.77" />
<circle cx="172" cy="313" r="1" fill="#23b6ff" opacity="0.64" />
<circle cx="118" cy="261" r="2" fill="#23b6ff" opacity="0.90" />
<circle cx="141" cy="365" r="1" fill="#23b6ff" opacity="0.91" />
<circle cx="585" cy="77" r="1" fill="#23b6ff" opacity="0.95" />
<circle cx="826" cy="2" r="1" fill="#23b6ff" opacity="0.71" />
<circle cx="424" cy="186" r="2" fill="#23b6ff" opacity="0.76" />
<circle cx="213" cy="155" r="1" fill="#23b6ff" opacity="0.86" />
<circle cx="176" cy="297" r="2" fill="#23b6ff" opacity="0.63" />
<circle cx="750" cy="116" r="2" fill="#23b6ff" opacity="0.74" />
<circle cx="328" cy="406" r="1" fill="#23b6ff" opacity="0.80" />
<circle cx="421" cy="193" r="1" fill="#23b6ff" opacity="0.73" />
<circle cx="248" cy="350" r="1" fill="#23b6ff" opacity="0.72" />
<circle cx="459" cy="36" r="1" fill="#23b6ff" opacity="0.98" />
<circle cx="1024" cy="363" r="1" fill="#23b6ff" opacity="0.53" />
<circle cx="497" cy="282" r="1" fill="#23b6ff" opacity="0.58" />
<circle cx="567" cy="416" r="1" fill="#23b6ff" opacity="0.53" />
<circle cx="527" cy="98" r="1" fill="#23b6ff" opacity="0.44" />
<circle cx="754" cy="29" r="2" fill="#23b6ff" opacity="0.65" />
<circle cx="98" cy="306" r="1" fill="#23b6ff" opacity="0.68" />
<circle cx="920" cy="118" r="2" fill="#23b6ff" opacity="0.89" />
<circle cx="955" cy="276" r="1" fill="#23b6ff" opacity="0.68" />
<circle cx="266" cy="349" r="1" fill="#23b6ff" opacity="0.97" />
<circle cx="922" cy="388" r="2" fill="#23b6ff" opacity="0.91" />
<circle cx="750" cy="15" r="1" fill="#23b6ff" opacity="0.46" />
<circle cx="803" cy="304" r="1" fill="#23b6ff" opacity="0.48" />
<circle cx="385" cy="35" r="1" fill="#23b6ff" opacity="0.70" />
<circle cx="147" cy="338" r="1" fill="#23b6ff" opacity="0.77" />
<circle cx="12" cy="111" r="2" fill="#23b6ff" opacity="0.86" />
<circle cx="822" cy="342" r="1" fill="#23b6ff" opacity="0.75" />
<circle cx="896" cy="238" r="1" fill="#23b6ff" opacity="0.43" />
<circle cx="983" cy="11" r="2" fill="#23b6ff" opacity="0.74" />
<circle cx="623" cy="331" r="2" fill="#23b6ff" opacity="0.75" />
<circle cx="478" cy="101" r="2" fill="#23b6ff" opacity="0.98" />
<circle cx="840" cy="28" r="1" fill="#23b6ff" opacity="0.85" />
<circle cx="417" cy="412" r="1" fill="#23b6ff" opacity="0.86" />
<circle cx="302" cy="212" r="1" fill="#23b6ff" opacity="0.75" />
<circle cx="801" cy="140" r="1" fill="#23b6ff" opacity="0.40" />
<circle cx="851" cy="130" r="1" fill="#23b6ff" opacity="0.99" />
<circle cx="253" cy="346" r="1" fill="#23b6ff" opacity="0.48" />
<circle cx="927" cy="352" r="1" fill="#23b6ff" opacity="0.87" />
<circle cx="845" cy="130" r="1" fill="#23b6ff" opacity="0.70" />
<circle cx="949" cy="55" r="2" fill="#23b6ff" opacity="0.74" />
<circle cx="948" cy="409" r="1" fill="#23b6ff" opacity="0.99" />
<circle cx="786" cy="110" r="1" fill="#23b6ff" opacity="0.80" />
<circle cx="164" cy="169" r="1" fill="#23b6ff" opacity="0.86" />
<circle cx="182" cy="335" r="2" fill="#23b6ff" opacity="0.84" />
<circle cx="288" cy="95" r="1" fill="#23b6ff" opacity="0.41" />
<circle cx="857" cy="404" r="1" fill="#23b6ff" opacity="0.89" />
<circle cx="650" cy="330" r="2" fill="#23b6ff" opacity="0.52" />
<circle cx="661" cy="217" r="1" fill="#23b6ff" opacity="0.86" />
<circle cx="67" cy="317" r="2" fill="#23b6ff" opacity="0.70" />
<circle cx="69" cy="179" r="2" fill="#23b6ff" opacity="0.89" />
<circle cx="38" cy="261" r="1" fill="#23b6ff" opacity="0.56" />
<circle cx="609" cy="382" r="1" fill="#23b6ff" opacity="0.78" />
<circle cx="905" cy="399" r="1" fill="#23b6ff" opacity="0.97" />
<circle cx="860" cy="259" r="2" fill="#23b6ff" opacity="0.57" />
<circle cx="451" cy="402" r="1" fill="#23b6ff" opacity="0.83" />
<circle cx="733" cy="278" r="1" fill="#23b6ff" opacity="0.46" />
<circle cx="555" cy="64" r="2" fill="#23b6ff" opacity="0.52" />
<circle cx="598" cy="201" r="1" fill="#23b6ff" opacity="0.97" />
<circle cx="31" cy="217" r="2" fill="#23b6ff" opacity="0.67" />
<circle cx="8" cy="154" r="1" fill="#23b6ff" opacity="0.48" />
<circle cx="582" cy="185" r="2" fill="#23b6ff" opacity="0.88" />
<circle cx="864" cy="188" r="2" fill="#23b6ff" opacity="0.90" />
<circle cx="500" cy="398" r="1" fill="#23b6ff" opacity="0.41" />
<circle cx="782" cy="166" r="1" fill="#23b6ff" opacity="0.99" />
<circle cx="952" cy="142" r="2" fill="#23b6ff" opacity="0.65" />
<circle cx="773" cy="200" r="2" fill="#23b6ff" opacity="0.90" />
<circle cx="533" cy="370" r="2" fill="#23b6ff" opacity="0.62" />
<circle cx="867" cy="240" r="2" fill="#23b6ff" opacity="0.87" />
<circle cx="234" cy="239" r="2" fill="#23b6ff" opacity="0.46" />
<circle cx="159" cy="52" r="1" fill="#23b6ff" opacity="0.47" />
<circle cx="206" cy="288" r="2" fill="#23b6ff" opacity="0.52" />
<circle cx="860" cy="363" r="1" fill="#23b6ff" opacity="0.47" />
<circle cx="173" cy="117" r="2" fill="#23b6ff" opacity="0.86" />
<circle cx="630" cy="207" r="1" fill="#23b6ff" opacity="0.77" />
<circle cx="771" cy="71" r="1" fill="#23b6ff" opacity="0.71" />
<circle cx="3" cy="402" r="1" fill="#23b6ff" opacity="0.87" />
<circle cx="851" cy="18" r="2" fill="#23b6ff" opacity="0.88" />
<circle cx="426" cy="254" r="1" fill="#23b6ff" opacity="0.44" />
<circle cx="757" cy="80" r="1" fill="#23b6ff" opacity="0.92" />
<circle cx="688" cy="155" r="1" fill="#23b6ff" opacity="0.41" />
<circle cx="410" cy="318" r="1" fill="#23b6ff" opacity="0.98" />
<circle cx="627" cy="387" r="1" fill="#23b6ff" opacity="0.41" />
<circle cx="640" cy="104" r="1" fill="#23b6ff" opacity="0.92" />
<circle cx="87" cy="330" r="1" fill="#23b6ff" opacity="0.53" />
<circle cx="682" cy="270" r="1" fill="#23b6ff" opacity="0.99" />
<circle cx="899" cy="371" r="1" fill="#23b6ff" opacity="0.65" />
<circle cx="490" cy="246" r="1" fill="#23b6ff" opacity="0.57" />
<circle cx="728" cy="2" r="1" fill="#23b6ff" opacity="0.55" />
<circle cx="930" cy="237" r="1" fill="#23b6ff" opacity="0.54" />
<circle cx="69" cy="399" r="1" fill="#23b6ff" opacity="0.59" />
<circle cx="237" cy="157" r="1" fill="#23b6ff" opacity="0.45" />
<circle cx="869" cy="336" r="2" fill="#23b6ff" opacity="0.50" />
<circle cx="1021" cy="403" r="1" fill="#23b6ff" opacity="0.69" />
<circle cx="333" cy="230" r="2" fill="#23b6ff" opacity="0.49" />
<circle cx="718" cy="360" r="2" fill="#23b6ff" opacity="0.59" />
<circle cx="612" cy="216" r="1" fill="#23b6ff" opacity="0.98" />
<circle cx="578" cy="385" r="1" fill="#23b6ff" opacity="0.72" />
<circle cx="43" cy="7" r="2" fill="#23b6ff" opacity="0.91" />
<circle cx="744" cy="66" r="1" fill="#23b6ff" opacity="0.98" />
<circle cx="284" cy="352" r="1" fill="#23b6ff" opacity="0.50" />
<circle cx="235" cy="409" r="1" fill="#23b6ff" opacity="0.55" />
<circle cx="596" cy="318" r="2" fill="#23b6ff" opacity="0.69" />
<circle cx="634" cy="84" r="1" fill="#23b6ff" opacity="0.92" />
<circle cx="845" cy="165" r="1" fill="#23b6ff" opacity="0.79" />
<circle cx="509" cy="302" r="1" fill="#23b6ff" opacity="0.77" />
<circle cx="301" cy="119" r="2" fill="#23b6ff" opacity="0.57" />
<circle cx="974" cy="344" r="1" fill="#23b6ff" opacity="0.41" />
<circle cx="352" cy="349" r="2" fill="#23b6ff" opacity="0.84" />
<circle cx="603" cy="26" r="1" fill="#23b6ff" opacity="0.65" />
<circle cx="977" cy="240" r="1" fill="#23b6ff" opacity="0.86" />
<circle cx="789" cy="252" r="1" fill="#23b6ff" opacity="0.66" />
<circle cx="117" cy="254" r="1" fill="#23b6ff" opacity="0.61" />
  <circle cx="742" cy="278" r="169" fill="url(#sun)" opacity="0.95"/>
  <polygon points="0,1024 0,560 64,632 128,747 192,663 256,720 320,554 384,686 448,564 512,725 576,737 640,701 704,686 768,736 832,589 896,613 960,585 1024,700 1024,1024" fill="#091325"/>
  <text x="24" y="998" fill="#66ffd1" font-size="24" font-family="monospace">concept_bg_02_planet_sunrise</text>
</svg>