<svg xmlns="http://www.w3.org/2000/svg" width="1024" height="1024" viewBox="0 0 1024 1024">
  <rect width="1024" height="1024" fill="#05070f"/>
  <polygon points="30,140 108,110 162,140 64,178" fill="#d8ecff" stroke="#23b6ff" stroke-width="3"/><polygon points="65,141 98,125 118,141 88,158" fill="#ff3f9e" opacity="0.8"/><polygon points="190,140 268,110 322,140 224,178" fill="#d8ecff" stroke="#23b6ff" stroke-width="3"/><polygon points="225,141 258,125 278,141 248,158" fill="#ff3f9e" opacity="0.8"/><polygon points="350,140 428,110 482,140 384,178" fill="#d8ecff" stroke="#23b6ff" stroke-width="3"/><polygon points="385,141 418,125 438,141 408,158" fill="#ff3f9e" opacity="0.8"/><polygon points="510,140 588,110 642,140 544,178" fill="#d8ecff" stroke="#23b6ff" stroke-width="3"/><polygon points="545,141 578,125 598,141 568,158" fill="#ff3f9e" opacity="0.8"/><polygon points="670,140 748,110 802,140 704,178" fill="#d8ecff" stroke="#23b6ff" stroke-width="3"/><polygon points="705,141 738,125 758,141 728,158" fill="#ff3f9e" opacity="0.8"/><polygon points="830,140 908,110 962,140 864,178" fill="#d8ecff" stroke="#23b6ff" stroke-width="3"/><polygon points="865,141 898,125 918,141 888,158" fill="#ff3f9e" opacity="0.8"/>
  <ellipse cx="75" cy="355" rx="38" ry="24" fill="#6b78a5" stroke="#ff8a2a" stroke-width="3"/><rect x="58" y="374" width="34" height="20" fill="#ff8a2a"/><ellipse cx="195" cy="355" rx="38" ry="24" fill="#6b78a5" stroke="#ff8a2a" stroke-width="3"/><rect x="178" y="374" width="34" height="20" fill="#ff8a2a"/><ellipse cx="315" cy="355" rx="38" ry="24" fill="#6b78a5" stroke="#ff8a2a" stroke-width="3"/><rect x="298" y="374" width="34" height="20" fill="#ff8a2a"/><ellipse cx="435" cy="355" rx="38" ry="24" fill="#6b78a5" stroke="#ff8a2a" stroke-width="3"/><rect x="418" y="374" width="34" height="20" fill="#ff8a2a"/><ellipse cx="555" cy="355" rx="38" ry="24" fill="#6b78a5" stroke="#ff8a2a" stroke-width="3"/><rect x="538" y="374" width="34" height="20" fill="#ff8a2a"/><ellipse cx="675" cy="355" rx="38" ry="24" fill="#6b78a5" stroke="#ff8a2a" stroke-width="3"/><rect x="658" y="374" width="34" height="20" fill="#ff8a2a"/><ellipse cx="795" cy="355" rx="38" ry="24" fill="#6b78a5" stroke="#ff8a2a" stroke-width="3"/><rect x="778" y="374" width="34" height="20" fill="#ff8a2a"/><ellipse cx="915" cy="355" rx="38" ry="24" fill="#6b78a5" stroke="#ff8a2a" stroke-width="3"/><rect x="898" y="374" width="34" height="20" fill="#ff8a2a"/>
  <rect x="20" y="540" width="52" height="52" fill="#1b2748" stroke="#66ffd1" stroke-width="3"/><text x="39" y="573" fill="#66ffd1" font-size="26" font-family="monospace">F</text><rect x="116" y="540" width="52" height="52" fill="#1b2748" stroke="#66ffd1" stroke-width="3"/><text x="135" y="573" fill="#66ffd1" font-size="26" font-family="monospace">F</text><rect x="212" y="540" width="52" height="52" fill="#1b2748" stroke="#66ffd1" stroke-width="3"/><text x="231" y="573" fill="#66ffd1" font-size="26" font-family="monospace">F</text><rect x="308" y="540" width="52" height="52" fill="#1b2748" stroke="#66ffd1" stroke-width="3"/><text x="327" y="573" fill="#66ffd1" font-size="26" font-family="monospace">F</text><rect x="404" y="540" width="52" height="52" fill="#1b2748" stroke="#66ffd1" stroke-width="3"/><text x="423" y="573" fill="#66ffd1" font-size="26" font-family="monospace">F</text><rect x="500" y="540" width="52" height="52" fill="#1b2748" stroke="#66ffd1" stroke-width="3"/><text x="519" y="573" fill="#66ffd1" font-size="26" font-family="monospace">F</text><rect x="596" y="540" width="52" height="52" fill="#1b2748" stroke="#66ffd1" stroke-width="3"/><text x="615" y="573" fill="#66ffd1" font-size="26" font-family="monospace">F</text><rect x="692" y="540" width="52" height="52" fill="#1b2748" stroke="#66ffd1" stroke-width="3"/><text x="711" y="573" fill="#66ffd1" font-size="26" font-family="monospace">F</text><rect x="788" y="540" width="52" height="52" fill="#1b2748" stroke="#66ffd1" stroke-width="3"/><text x="807" y="573" fill="#66ffd1" font-size="26" font-family="monospace">F</text><rect x="884" y="540" width="52" height="52" fill="#1b2748" stroke="#66ffd1" stroke-width="3"/><text x="903" y="573" fill="#66ffd1" font-size="26" font-family="monospace">F</text>
  <rect x="32" y="760" width="220" height="90" rx="14" fill="#141d36" stroke="#23b6ff" stroke-width="4"/><rect x="48" y="806" width="188" height="14" fill="#2f416e"/><rect x="48" y="806" width="183" height="14" fill="#ff3f9e"/><rect x="278" y="760" width="220" height="90" rx="14" fill="#141d36" stroke="#23b6ff" stroke-width="4"/><rect x="294" y="806" width="188" height="14" fill="#2f416e"/><rect x="294" y="806" width="132" height="14" fill="#ff3f9e"/><rect x="524" y="760" width="220" height="90" rx="14" fill="#141d36" stroke="#23b6ff" stroke-width="4"/><rect x="540" y="806" width="188" height="14" fill="#2f416e"/><rect x="540" y="806" width="122" height="14" fill="#ff3f9e"/><rect x="770" y="760" width="220" height="90" rx="14" fill="#141d36" stroke="#23b6ff" stroke-width="4"/><rect x="786" y="806" width="188" height="14" fill="#2f416e"/><rect x="786" y="806" width="133" height="14" fill="#ff3f9e"/>
  <text x="24" y="1000" fill="#66ffd1" font-size="24" font-family="monospace">sample_sprite_sheet_concepts</text>
</svg>