<svg xmlns="http://www.w3.org/2000/svg" width="1024" height="512" viewBox="0 0 1024 512">
  <rect width="1024" height="512" fill="#05070f"/>
  <rect x="0" y="0" width="64" height="64" fill="#223764"/><rect x="8" y="8" width="48" height="48" fill="none" stroke="#66ffd1" stroke-opacity="0.45" stroke-width="2"/><rect x="64" y="0" width="64" height="64" fill="#192b4d"/><line x1="64" y1="32" x2="128" y2="32" stroke="#23b6ff" stroke-opacity="0.35"/><rect x="128" y="0" width="64" height="64" fill="#13203a"/><line x1="128" y1="32" x2="192" y2="32" stroke="#23b6ff" stroke-opacity="0.35"/><rect x="136" y="8" width="48" height="48" fill="none" stroke="#66ffd1" stroke-opacity="0.45" stroke-width="2"/><rect x="192" y="0" width="64" height="64" fill="#223764"/><line x1="192" y1="32" x2="256" y2="32" stroke="#23b6ff" stroke-opacity="0.35"/><rect x="200" y="8" width="48" height="48" fill="none" stroke="#66ffd1" stroke-opacity="0.45" stroke-width="2"/><rect x="256" y="0" width="64" height="64" fill="#2e4a7f"/><line x1="256" y1="32" x2="320" y2="32" stroke="#23b6ff" stroke-opacity="0.35"/><rect x="264" y="8" width="48" height="48" fill="none" stroke="#66ffd1" stroke-opacity="0.45" stroke-width="2"/><rect x="320" y="0" width="64" height="64" fill="#2e4a7f"/><rect x="384" y="0" width="64" height="64" fill="#223764"/><rect x="448" y="0" width="64" height="64" fill="#13203a"/><line x1="448" y1="32" x2="512" y2="32" stroke="#23b6ff" stroke-opacity="0.35"/><rect x="456" y="8" width="48" height="48" fill="none" stroke="#66ffd1" stroke-opacity="0.45" stroke-width="2"/><rect x="512" y="0" width="64" height="64" fill="#2e4a7f"/><line x1="512" y1="32" x2="576" y2="32" stroke="#23b6ff" stroke-opacity="0.35"/><rect x="576" y="0" width="64" height="64" fill="#223764"/><rect x="640" y="0" width="64" height="64" fill="#192b4d"/><line x1="640" y1="32" x2="704" y2="32" stroke="#23b6ff" stroke-opacity="0.35"/><rect x="704" y="0" width="64" height="64" fill="#192b4d"/><line x1="704" y1="32" x2="768" y2="32" stroke="#23b6ff" stroke-opacity="0.35"/><rect x="768" y="0" width="64" height="64" fill="#13203a"/><rect x="832" y="0" width="64" height="64" fill="#223764"/><rect x="896" y="0" width="64" height="64" fill="#13203a"/><rect x="904" y="8" width="48" height="48" fill="none" stroke="#66ffd1" stroke-opacity="0.45" stroke-width="2"/><rect x="960" y="0" width="64" height="64" fill="#192b4d"/><line x1="960" y1="32" x2="1024" y2="32" stroke="#23b6ff" stroke-opacity="0.35"/><rect x="968" y="8" width="48" height="48" fill="none" stroke="#66ffd1" stroke-opacity="0.45" stroke-width="2"/><rect x="0" y="64" width="64" height="64" fill="#13203a"/><rect x="8" y="72" width="48" height="48" fill="none" stroke="#66ffd1" stroke-opacity="0.45" stroke-width="2"/><rect x="64" y="64" width="64" height="64" fill="#2e4a7f"/><line x1="64" y1="96" x2="128" y2="96" stroke="#23b6ff" stroke-opacity="0.35"/><rect x="128" y="64" width="64" height="64" fill="#2e4a7f"/><line x1="128" y1="96" x2="192" y2="96" stroke="#23b6ff" stroke-opacity="0.35"/><rect x="192" y="64" width="64" height="64" fill="#223764"/><line x1="192" y1="96" x2="256" y2="96" stroke="#23b6ff" stroke-opacity="0.35"/><rect x="200" y="72" width="48" height="48" fill="none" stroke="#66ffd1" stroke-opacity="0.45" stroke-width="2"/><rect x="256" y="64" width="64" height="64" fill="#223764"/><line x1="256" y1="96" x2="320" y2="96" stroke="#23b6ff" stroke-opacity="0.35"/><rect x="264" y="72" width="48" height="48" fill="none" stroke="#66ffd1" stroke-opacity="0.45" stroke-width="2"/><rect x="320" y="64" width="64" height="64" fill="#223764"/><rect x="384" y="64" width="64" height="64" fill="#223764"/><rect x="392" y="72" width="48" height="48" fill="none" stroke="#66ffd1" stroke-opacity="0.45" stroke-width="2"/><rect x="448" y="64" width="64" height="64" fill="#223764"/><rect x="456" y="72" width="48" height="48" fill="none" stroke="#66ffd1" stroke-opacity="0.45" stroke-width="2"/><rect x="512" y="64" width="64" height="64" fill="#192b4d"/><rect x="520" y="72" width="48" height="48" fill="none" stroke="#66ffd1" stroke-opacity="0.45" stroke-width="2"/><rect x="576" y="64" width="64" height="64" fill="#192b4d"/><line x1="576" y1="96" x2="640" y2="96" stroke="#23b6ff" stroke-opacity="0.35"/><rect x="584" y="72" width="48" height="48" fill="none" stroke="#66ffd1" stroke-opacity="0.45" stroke-width="2"/><rect x="640" y="64" width="64" height="64" fill="#192b4d"/><line x1="640" y1="96" x2="704" y2="96" stroke="#23b6ff" stroke-opacity="0.35"/><rect x="648" y="72" width="48" height="48" fill="none" stroke="#66ffd1" stroke-opacity="0.45" stroke-width="2"/><rect x="704" y="64" width="64" height="64" fill="#192b4d"/><rect x="768" y="64" width="64" height="64" fill="#2e4a7f"/><line x1="768" y1="96" x2="832" y2="96" stroke="#23b6ff" stroke-opacity="0.35"/><rect x="832" y="64" width="64" height="64" fill="#192b4d"/><line x1="832" y1="96" x2="896" y2="96" stroke="#23b6ff" stroke-opacity="0.35"/><rect x="896" y="64" width="64" height="64" fill="#2e4a7f"/><line x1="896" y1="96" x2="960" y2="96" stroke="#23b6ff" stroke-opacity="0.35"/><rect x="960" y="64" width="64" height="64" fill="#192b4d"/><rect x="0" y="128" width="64" height="64" fill="#223764"/><line x1="0" y1="160" x2="64" y2="160" stroke="#23b6ff" stroke-opacity="0.35"/><rect x="8" y="136" width="48" height="48" fill="none" stroke="#66ffd1" stroke-opacity="0.45" stroke-width="2"/><rect x="64" y="128" width="64" height="64" fill="#223764"/><line x1="64" y1="160" x2="128" y2="160" stroke="#23b6ff" stroke-opacity="0.35"/><rect x="72" y="136" width="48" height="48" fill="none" stroke="#66ffd1" stroke-opacity="0.45" stroke-width="2"/><rect x="128" y="128" width="64" height="64" fill="#223764"/><line x1="128" y1="160" x2="192" y2="160" stroke="#23b6ff" stroke-opacity="0.35"/><rect x="192" y="128" width="64" height="64" fill="#223764"/><line x1="192" y1="160" x2="256" y2="160" stroke="#23b6ff" stroke-opacity="0.35"/><rect x="256" y="128" width="64" height="64" fill="#223764"/><line x1="256" y1="160" x2="320" y2="160" stroke="#23b6ff" stroke-opacity="0.35"/><rect x="264" y="136" width="48" height="48" fill="none" stroke="#66ffd1" stroke-opacity="0.45" stroke-width="2"/><rect x="320" y="128" width="64" height="64" fill="#13203a"/><rect x="328" y="136" width="48" height="48" fill="none" stroke="#66ffd1" stroke-opacity="0.45" stroke-width="2"/><rect x="384" y="128" width="64" height="64" fill="#223764"/><rect x="392" y="136" width="48" height="48" fill="none" stroke="#66ffd1" stroke-opacity="0.45" stroke-width="2"/><rect x="448" y="128" width="64" height="64" fill="#223764"/><rect x="456" y="136" width="48" height="48" fill="none" stroke="#66ffd1" stroke-opacity="0.45" stroke-width="2"/><rect x="512" y="128" width="64" height="64" fill="#223764"/><rect x="576" y="128" width="64" height="64" fill="#192b4d"/><rect x="640" y="128" width="64" height="64" fill="#192b4d"/><line x1="640" y1="160" x2="704" y2="160" stroke="#23b6ff" stroke-opacity="0.35"/><rect x="648" y="136" width="48" height="48" fill="none" stroke="#66ffd1" stroke-opacity="0.45" stroke-width="2"/><rect x="704" y="128" width="64" height="64" fill="#13203a"/><line x1="704" y1="160" x2="768" y2="160" stroke="#23b6ff" stroke-opacity="0.35"/><rect x="768" y="128" width="64" height="64" fill="#2e4a7f"/><rect x="776" y="136" width="48" height="48" fill="none" stroke="#66ffd1" stroke-opacity="0.45" stroke-width="2"/><rect x="832" y="128" width="64" height="64" fill="#13203a"/><line x1="832" y1="160" x2="896" y2="160" stroke="#23b6ff" stroke-opacity="0.35"/><rect x="896" y="128" width="64" height="64" fill="#2e4a7f"/><rect x="960" y="128" width="64" height="64" fill="#2e4a7f"/><rect x="0" y="192" width="64" height="64" fill="#192b4d"/><line x1="0" y1="224" x2="64" y2="224" stroke="#23b6ff" stroke-opacity="0.35"/><rect x="64" y="192" width="64" height="64" fill="#13203a"/><rect x="128" y="192" width="64" height="64" fill="#223764"/><rect x="136" y="200" width="48" height="48" fill="none" stroke="#66ffd1" stroke-opacity="0.45" stroke-width="2"/><rect x="192" y="192" width="64" height="64" fill="#223764"/><rect x="200" y="200" width="48" height="48" fill="none" stroke="#66ffd1" stroke-opacity="0.45" stroke-width="2"/><rect x="256" y="192" width="64" height="64" fill="#223764"/><line x1="256" y1="224" x2="320" y2="224" stroke="#23b6ff" stroke-opacity="0.35"/><rect x="320" y="192" width="64" height="64" fill="#2e4a7f"/><rect x="384" y="192" width="64" height="64" fill="#13203a"/><rect x="448" y="192" width="64" height="64" fill="#223764"/><rect x="512" y="192" width="64" height="64" fill="#13203a"/><line x1="512" y1="224" x2="576" y2="224" stroke="#23b6ff" stroke-opacity="0.35"/><rect x="520" y="200" width="48" height="48" fill="none" stroke="#66ffd1" stroke-opacity="0.45" stroke-width="2"/><rect x="576" y="192" width="64" height="64" fill="#223764"/><rect x="584" y="200" width="48" height="48" fill="none" stroke="#66ffd1" stroke-opacity="0.45" stroke-width="2"/><rect x="640" y="192" width="64" height="64" fill="#2e4a7f"/><rect x="648" y="200" width="48" height="48" fill="none" stroke="#66ffd1" stroke-opacity="0.45" stroke-width="2"/><rect x="704" y="192" width="64" height="64" fill="#223764"/><rect x="768" y="192" width="64" height="64" fill="#192b4d"/><rect x="832" y="192" width="64" height="64" fill="#192b4d"/><rect x="896" y="192" width="64" height="64" fill="#223764"/><rect x="904" y="200" width="48" height="48" fill="none" stroke="#66ffd1" stroke-opacity="0.45" stroke-width="2"/><rect x="960" y="192" width="64" height="64" fill="#192b4d"/><line x1="960" y1="224" x2="1024" y2="224" stroke="#23b6ff" stroke-opacity="0.35"/><rect x="968" y="200" width="48" height="48" fill="none" stroke="#66ffd1" stroke-opacity="0.45" stroke-width="2"/><rect x="0" y="256" width="64" height="64" fill="#223764"/><rect x="8" y="264" width="48" height="48" fill="none" stroke="#66ffd1" stroke-opacity="0.45" stroke-width="2"/><rect x="64" y="256" width="64" height="64" fill="#13203a"/><line x1="64" y1="288" x2="128" y2="288" stroke="#23b6ff" stroke-opacity="0.35"/><rect x="128" y="256" width="64" height="64" fill="#2e4a7f"/><line x1="128" y1="288" x2="192" y2="288" stroke="#23b6ff" stroke-opacity="0.35"/><rect x="192" y="256" width="64" height="64" fill="#2e4a7f"/><line x1="192" y1="288" x2="256" y2="288" stroke="#23b6ff" stroke-opacity="0.35"/><rect x="256" y="256" width="64" height="64" fill="#13203a"/><line x1="256" y1="288" x2="320" y2="288" stroke="#23b6ff" stroke-opacity="0.35"/><rect x="264" y="264" width="48" height="48" fill="none" stroke="#66ffd1" stroke-opacity="0.45" stroke-width="2"/><rect x="320" y="256" width="64" height="64" fill="#223764"/><rect x="328" y="264" width="48" height="48" fill="none" stroke="#66ffd1" stroke-opacity="0.45" stroke-width="2"/><rect x="384" y="256" width="64" height="64" fill="#13203a"/><rect x="448" y="256" width="64" height="64" fill="#2e4a7f"/><line x1="448" y1="288" x2="512" y2="288" stroke="#23b6ff" stroke-opacity="0.35"/><rect x="512" y="256" width="64" height="64" fill="#192b4d"/><line x1="512" y1="288" x2="576" y2="288" stroke="#23b6ff" stroke-opacity="0.35"/><rect x="576" y="256" width="64" height="64" fill="#223764"/><line x1="576" y1="288" x2="640" y2="288" stroke="#23b6ff" stroke-opacity="0.35"/><rect x="584" y="264" width="48" height="48" fill="none" stroke="#66ffd1" stroke-opacity="0.45" stroke-width="2"/><rect x="640" y="256" width="64" height="64" fill="#192b4d"/><line x1="640" y1="288" x2="704" y2="288" stroke="#23b6ff" stroke-opacity="0.35"/><rect x="704" y="256" width="64" height="64" fill="#223764"/><rect x="712" y="264" width="48" height="48" fill="none" stroke="#66ffd1" stroke-opacity="0.45" stroke-width="2"/><rect x="768" y="256" width="64" height="64" fill="#192b4d"/><rect x="776" y="264" width="48" height="48" fill="none" stroke="#66ffd1" stroke-opacity="0.45" stroke-width="2"/><rect x="832" y="256" width="64" height="64" fill="#2e4a7f"/><rect x="896" y="256" width="64" height="64" fill="#13203a"/><line x1="896" y1="288" x2="960" y2="288" stroke="#23b6ff" stroke-opacity="0.35"/><rect x="960" y="256" width="64" height="64" fill="#13203a"/><line x1="960" y1="288" x2="1024" y2="288" stroke="#23b6ff" stroke-opacity="0.35"/><rect x="0" y="320" width="64" height="64" fill="#13203a"/><rect x="64" y="320" width="64" height="64" fill="#223764"/><rect x="128" y="320" width="64" height="64" fill="#223764"/><line x1="128" y1="352" x2="192" y2="352" stroke="#23b6ff" stroke-opacity="0.35"/><rect x="136" y="328" width="48" height="48" fill="none" stroke="#66ffd1" stroke-opacity="0.45" stroke-width="2"/><rect x="192" y="320" width="64" height="64" fill="#223764"/><rect x="256" y="320" width="64" height="64" fill="#13203a"/><rect x="320" y="320" width="64" height="64" fill="#2e4a7f"/><line x1="320" y1="352" x2="384" y2="352" stroke="#23b6ff" stroke-opacity="0.35"/><rect x="384" y="320" width="64" height="64" fill="#223764"/><line x1="384" y1="352" x2="448" y2="352" stroke="#23b6ff" stroke-opacity="0.35"/><rect x="448" y="320" width="64" height="64" fill="#192b4d"/><rect x="456" y="328" width="48" height="48" fill="none" stroke="#66ffd1" stroke-opacity="0.45" stroke-width="2"/><rect x="512" y="320" width="64" height="64" fill="#223764"/><line x1="512" y1="352" x2="576" y2="352" stroke="#23b6ff" stroke-opacity="0.35"/><rect x="520" y="328" width="48" height="48" fill="none" stroke="#66ffd1" stroke-opacity="0.45" stroke-width="2"/><rect x="576" y="320" width="64" height="64" fill="#192b4d"/><line x1="576" y1="352" x2="640" y2="352" stroke="#23b6ff" stroke-opacity="0.35"/><rect x="640" y="320" width="64" height="64" fill="#192b4d"/><rect x="648" y="328" width="48" height="48" fill="none" stroke="#66ffd1" stroke-opacity="0.45" stroke-width="2"/><rect x="704" y="320" width="64" height="64" fill="#192b4d"/><line x1="704" y1="352" x2="768" y2="352" stroke="#23b6ff" stroke-opacity="0.35"/><rect x="768" y="320" width="64" height="64" fill="#223764"/><rect x="776" y="328" width="48" height="48" fill="none" stroke="#66ffd1" stroke-opacity="0.45" stroke-width="2"/><rect x="832" y="320" width="64" height="64" fill="#13203a"/><line x1="832" y1="352" x2="896" y2="352" stroke="#23b6ff" stroke-opacity="0.35"/><rect x="840" y="328" width="48" height="48" fill="none" stroke="#66ffd1" stroke-opacity="0.45" stroke-width="2"/><rect x="896" y="320" width="64" height="64" fill="#2e4a7f"/><rect x="960" y="320" width="64" height="64" fill="#13203a"/><line x1="960" y1="352" x2="1024" y2="352" stroke="#23b6ff" stroke-opacity="0.35"/><rect x="0" y="384" width="64" height="64" fill="#192b4d"/><rect x="64" y="384" width="64" height="64" fill="#2e4a7f"/><rect x="128" y="384" width="64" height="64" fill="#223764"/><line x1="128" y1="416" x2="192" y2="416" stroke="#23b6ff" stroke-opacity="0.35"/><rect x="192" y="384" width="64" height="64" fill="#13203a"/><rect x="256" y="384" width="64" height="64" fill="#13203a"/><line x1="256" y1="416" x2="320" y2="416" stroke="#23b6ff" stroke-opacity="0.35"/><rect x="320" y="384" width="64" height="64" fill="#2e4a7f"/><line x1="320" y1="416" x2="384" y2="416" stroke="#23b6ff" stroke-opacity="0.35"/><rect x="328" y="392" width="48" height="48" fill="none" stroke="#66ffd1" stroke-opacity="0.45" stroke-width="2"/><rect x="384" y="384" width="64" height="64" fill="#13203a"/><line x1="384" y1="416" x2="448" y2="416" stroke="#23b6ff" stroke-opacity="0.35"/><rect x="392" y="392" width="48" height="48" fill="none" stroke="#66ffd1" stroke-opacity="0.45" stroke-width="2"/><rect x="448" y="384" width="64" height="64" fill="#192b4d"/><rect x="512" y="384" width="64" height="64" fill="#2e4a7f"/><line x1="512" y1="416" x2="576" y2="416" stroke="#23b6ff" stroke-opacity="0.35"/><rect x="520" y="392" width="48" height="48" fill="none" stroke="#66ffd1" stroke-opacity="0.45" stroke-width="2"/><rect x="576" y="384" width="64" height="64" fill="#13203a"/><line x1="576" y1="416" x2="640" y2="416" stroke="#23b6ff" stroke-opacity="0.35"/><rect x="584" y="392" width="48" height="48" fill="none" stroke="#66ffd1" stroke-opacity="0.45" stroke-width="2"/><rect x="640" y="384" width="64" height="64" fill="#13203a"/><rect x="704" y="384" width="64" height="64" fill="#2e4a7f"/><line x1="704" y1="416" x2="768" y2="416" stroke="#23b6ff" stroke-opacity="0.35"/><rect x="768" y="384" width="64" height="64" fill="#192b4d"/><line x1="768" y1="416" x2="832" y2="416" stroke="#23b6ff" stroke-opacity="0.35"/><rect x="776" y="392" width="48" height="48" fill="none" stroke="#66ffd1" stroke-opacity="0.45" stroke-width="2"/><rect x="832" y="384" width="64" height="64" fill="#2e4a7f"/><line x1="832" y1="416" x2="896" y2="416" stroke="#23b6ff" stroke-opacity="0.35"/><rect x="840" y="392" width="48" height="48" fill="none" stroke="#66ffd1" stroke-opacity="0.45" stroke-width="2"/><rect x="896" y="384" width="64" height="64" fill="#2e4a7f"/><line x1="896" y1="416" x2="960" y2="416" stroke="#23b6ff" stroke-opacity="0.35"/><rect x="904" y="392" width="48" height="48" fill="none" stroke="#66ffd1" stroke-opacity="0.45" stroke-width="2"/><rect x="960" y="384" width="64" height="64" fill="#2e4a7f"/><rect x="0" y="448" width="64" height="64" fill="#223764"/><line x1="0" y1="480" x2="64" y2="480" stroke="#23b6ff" stroke-opacity="0.35"/><rect x="64" y="448" width="64" height="64" fill="#13203a"/><line x1="64" y1="480" x2="128" y2="480" stroke="#23b6ff" stroke-opacity="0.35"/><rect x="72" y="456" width="48" height="48" fill="none" stroke="#66ffd1" stroke-opacity="0.45" stroke-width="2"/><rect x="128" y="448" width="64" height="64" fill="#192b4d"/><rect x="136" y="456" width="48" height="48" fill="none" stroke="#66ffd1" stroke-opacity="0.45" stroke-width="2"/><rect x="192" y="448" width="64" height="64" fill="#13203a"/><line x1="192" y1="480" x2="256" y2="480" stroke="#23b6ff" stroke-opacity="0.35"/><rect x="200" y="456" width="48" height="48" fill="none" stroke="#66ffd1" stroke-opacity="0.45" stroke-width="2"/><rect x="256" y="448" width="64" height="64" fill="#13203a"/><rect x="320" y="448" width="64" height="64" fill="#13203a"/><line x1="320" y1="480" x2="384" y2="480" stroke="#23b6ff" stroke-opacity="0.35"/><rect x="384" y="448" width="64" height="64" fill="#2e4a7f"/><rect x="448" y="448" width="64" height="64" fill="#13203a"/><rect x="512" y="448" width="64" height="64" fill="#13203a"/><line x1="512" y1="480" x2="576" y2="480" stroke="#23b6ff" stroke-opacity="0.35"/><rect x="576" y="448" width="64" height="64" fill="#223764"/><rect x="640" y="448" width="64" height="64" fill="#13203a"/><rect x="704" y="448" width="64" height="64" fill="#2e4a7f"/><line x1="704" y1="480" x2="768" y2="480" stroke="#23b6ff" stroke-opacity="0.35"/><rect x="712" y="456" width="48" height="48" fill="none" stroke="#66ffd1" stroke-opacity="0.45" stroke-width="2"/><rect x="768" y="448" width="64" height="64" fill="#192b4d"/><line x1="768" y1="480" x2="832" y2="480" stroke="#23b6ff" stroke-opacity="0.35"/><rect x="832" y="448" width="64" height="64" fill="#223764"/><rect x="896" y="448" width="64" height="64" fill="#223764"/><rect x="960" y="448" width="64" height="64" fill="#2e4a7f"/><rect x="968" y="456" width="48" height="48" fill="none" stroke="#66ffd1" stroke-opacity="0.45" stroke-width="2"/>
</svg>